<?xml version="1.0" encoding="utf-8"?>
<!-- Generator: Adobe Illustrator 22.1.0, SVG Export Plug-In . SVG Version: 6.00 Build 0)  -->
<svg version="1.1" id="レイヤー_1" xmlns="http://www.w3.org/2000/svg" xmlns:xlink="http://www.w3.org/1999/xlink" x="0px"
	 y="0px" viewBox="0 0 762 312" style="enable-background:new 0 0 762 312;" xml:space="preserve">
<style type="text/css">
	.st0{fill:#FFFFFF;}
</style>
<title>mv_logo_01</title>
<g id="レイヤー_2_1_">
	<path class="st0" d="M135.5,92.1l0.5-1.7l0.1-0.3l0.5-1.5l1.3-3.8l0.5-1.5v-0.1l0.1-0.7l0.7-1.6c0.2-0.5,0.4-1.1,0.5-1.7l0.6-2.1
		l0.9-2.8l0.3-0.5l0.2-0.5l0.1-0.7l0.9-2l0.7-1.9l0.8-1.6h-0.4c-0.7,0.7-1.8,2.6-2,2.8c-1.3,1.2-2.5,2.4-3.8,3.5l-1.7,2.3l-0.1,0.2
		l-0.5,0.5l-3.2,2.6l-0.7,0.5l-0.1,0.6l-0.5,0.7l-0.2,0.1l-0.1,0.3l-0.5,0.5L130,82l-0.7,0.2l-0.4,0.3l-0.2,0.5l-0.3,0.5l-1.4,0.6
		l-0.8,0.6l-1,0.8H125l-0.6,0.5l-1,1.1l-2,1.7l-0.7,0.5l-2,1.6l-0.6,0.4l-0.6,0.6l-2.1,1.6l-0.6,0.6l-0.7,0.6l-1,0.7l-0.4,0.2
		l-1,0.7l-0.7,0.6l-1.4,1.1l-0.7,0.6l-0.5,0.2c-0.5,0.3-1,0.6-1.4,1l-0.1,0.1l-0.7,0.5l-1,0.8l-0.4,0.4l-1,0.3
		c-2.8,1.9-5.7,3.6-8.6,5.3c-1,0.6-2.5,1.5-4.4,2.5l-1.2,1l-3.5,2l-5.4,2.2c-2.5,1.2-5.2,2.2-7.9,3l-0.4,0.2l-1.2,0.3h-0.1
		c-0.4,0.1-0.8,0.2-1.2,0.3l-0.2,0.1l-1,0.2v0.1h-0.2v-0.2c-1,0.2-2,0.2-3,0.1c-0.6-0.1-1.2-0.2-1.8-0.5l-0.4-0.1h-0.2l-0.5-0.3
		l-0.4-0.3l-0.1-0.5l0.1-0.1c-0.4-0.3-0.7-0.6-1.1-0.9v-0.1c-0.1-0.1-0.2-0.2-0.2-0.2l-0.3-0.2l-0.3-0.1l-0.3-0.4h-0.3l-0.1-0.2h0.1
		l-0.4-0.3l-0.2-0.2c-0.1,0-0.1,0-0.2-0.1h-0.2l-0.1-0.3c-0.2-0.1-0.2-0.2-0.3-0.5c-0.1-1-0.2-1.9-0.3-2.9l-0.2-0.6l-0.3-1.9
		l-0.2-0.3l-0.1-0.5l-0.6-0.3l-0.2-0.2l-0.1-0.4l0.1-0.5l0.5-0.1l-0.2-0.4l0.1-0.5l0.1-0.1c-0.1-0.8,0-1.6,0.2-2.4l0.4-1.4l-0.1-0.4
		l0.2,0.1l0.4-0.9h-0.1v-0.3l0.1-0.6v-0.9l0.5-1.1h0.1l0-0.3l0.3-0.3l0.1-0.5l-0.2-0.1l0.2-0.2v0.2l0.8-0.7h0.2l0.3-0.2l0.3-0.3V94
		l0.3-0.2l0.3-0.3l0.8-0.6l0-0.9l0.3-0.9l0.8-0.5l1.2-0.9c1.7-2,3.5-3.8,5.4-5.8l0.3-0.3l0.5-0.6l0.2,0.1l0.5-0.5v-0.2l0.3-0.3
		l0.4-0.1L75,79l0.1-0.1l0.2-0.2l1-0.8l0.1-0.1l0.5-0.4l0.4-0.4L77,76.9v-0.4l0.3-0.2h0.1v0.1v0.3l0.2-0.2l0.3-0.2l0.2-0.1v-0.3
		l0.1-0.1h0.2l1.5-1l2.4-2v-0.3l0.3-0.1l0.5-0.2l1-1.2l0.6-0.6l0.3-0.1l1.1-0.7l1.2-0.8l0.2-0.2l0.4-0.1l0.6-0.4l1.8-1.5l0.4-0.3
		l0.1-0.2h0.1l1.5-1.1l0.4-0.1l0.2-0.2l0.6-0.5l0.3-0.2l1.6-1.2l0.5-0.3l0.6-0.6l1.1-0.6c2.3-1.4,4-2.7,5.5-3.7l0.4-0.2l0.5-0.5h0.1
		l2-1.5l0.5-0.7l0.6-0.4l0.5-0.2l0.5-0.1l0.3-0.2l0.4-0.1c0.1-0.1,0.1-0.1,0.2-0.1l0.2-0.4l0.2-0.3l0.5-0.3l0.4-0.1l0.2-0.2l0.9-0.2
		l0.4-0.3l2.6-1.3l1.2-1l0.3-0.1l1.6-0.6h0.3L118,49l0.8-0.3l0.1-0.1h0.2l1.1-0.4l0.5-0.3l0.2-0.2h0.2l0.1-0.1l0.3-0.1l0.1-0.2
		l0.1-0.1L122,47v-0.1l0.1-0.1l0.1,0.2l1.1-0.2l0.7-0.3l0.3-0.1l0.7-0.2v0.1l0.3-0.1l0.3-0.2l0.9-0.3l1.8,0.1l1.2-0.4l0.7,0.1h0.3
		h0.3l0.1-0.1h0.1l-0.1,0.2h0.3l0.4,0.3l0.1,0.4c0.4,0,0.8,0,1.2,0c0.4-0.1,0.5,0.1,0.5,0.5l0.1,0.3l0.2,0.2l0.4,0.6l0.4,1.3L135,50
		l1,2v1.6l-1.6,1.8l-0.4,0.3l-0.5,0.1l-1.3-0.9v-1.6v-0.3l-0.3-0.2l-0.1-0.6l0.1-1.2l-0.1-1l-0.2-0.8l-0.2-1.1l-0.6-0.2l-0.9-0.1
		l-0.7,0.1h-0.5l-1.1-0.2l-0.9-0.4l-0.1,0.1l-0.2-0.1v-0.1h-0.1l-0.1,0.1l-0.6,0.5l-0.9,0.5l-0.5,0.3h-0.2l-0.2,0.1l-0.2-0.1
		l-0.4-0.2h-0.5l-0.7-0.2l-0.6,0.6l-0.2,0.1h-0.2l-0.5,0.3l-0.1,0.3l-0.3,0.4l-0.7,0.4h-0.4l-0.4-0.1l-2.8,1.5L116,52h-0.2l-1.5,0.8
		l-0.5,0.5l-0.3,0.1l-1.3,0.6l-0.3,0.2h-0.3l-0.1,0.1l-0.5,0.2l-2.1,1.1l-1.2,0.9l-1.3,0.5l-0.1,0.2l-1.5,0.8l-0.4,0.3l-0.6,0.4
		l-0.8,0.4l-0.7,0.4l-0.2,0.2l-0.2,0.1l-1.6,0.9l-1.6,1.1l-1.1,1L97.4,63l-1,0.9l-3.6,2.7L91.1,68l-1.8,1.2l-0.1,0.3l-2.1,1.5
		l-0.5,0.8l-0.8,0.6l-0.3-0.1l-0.8,0.9L83.7,74l-0.3,0.1l-0.3,0.4l-2.9,2.1c-0.1,0-0.1,0.1-0.2,0.2v0.2L80,76.9
		c-0.1,0.1-0.2,0.2-0.2,0.2l-4.3,4.2l-0.7,1l-0.7,0.5H74l-2,2.1v0.3l-0.6,0.6h-0.3c-0.4,0.5-0.8,1-1.3,1.5l-0.7,1.1l-0.4,0.2v0.5
		l0.1,0.3l-0.2,0.1l-0.1,0.2l-0.4,0.5l-0.7,0.7l-0.3,0.4l-0.9,0.5l-0.3,0.2c-1.5,1.9-2.8,3.8-4,5.9l0.2,0.3l0.1,0.4l-0.3,0.2
		l-0.1,0.5L61,99.9l-0.7,1.2l-0.2,0.1l-0.8,2.2c-0.1,0.1-0.1,0.1-0.1,0.2v0.3l-0.2,0.8v0.5l-0.1,0.8l-0.3,0.4l-0.1,0.5l-0.1,0.1v0.1
		l0,0.8l-0.1,0.9c0,0.5,0,1,0.1,1.6l0.1,0.1v0.3l0.1,0.4l0.1,0.2l0.1,0.4c0.2,0.8,0.6,1.4,1.2,2h0.4h0.3l0.2,0.2h0.1l0.1,0.1
		l0.2,0.3l0.3,0.2l0.3,0.4L62,115l0.9,0.3l0-0.2l0.4-0.1l0.6,0.2l0.1,0.2l0.1,0.3c0.6,0.1,1.1,0.2,1.7,0.2l0.7-0.2h0.4h0.3l0.4,0.1
		l0.1,0.1c1.2,0,2.3-0.1,3.5-0.3h0.2l0.2-0.5H72l0.7-0.2l0.9-0.1l1,0.1c0.2,0,0.3-0.2,0.5-0.2l1.4-0.5l0.7-0.2l0.8-0.2l0.2,0.1
		l0.6-0.3c1.6-0.6,3.2-1.2,4.9-2l0.2-0.3l0.6-0.2l0.2-0.2h0.3c2-0.9,3.9-1.8,6-2.9l0.5-0.5l0.1-0.3l1.6-0.6l1-0.6l1.6-0.8
		c2.9-1.7,5.8-3.6,8.8-5.6l0.2-0.1l0.1-0.3h0.2l3.1-2.2h0.3l0.6-0.6l0.5-0.3l3.1-2.3l1.2-1l0.2-0.2l1.4-1l0.3-0.4l0.8-0.4l0.6-0.6
		l0.5-0.7L118,89l2.1-1.7l0.8-0.6l2.8-2.2l0.3-0.3l1.3-0.9l0.1-0.3l0.2-0.1l0.2,0.1l3.7-3.3l0.5-0.5l0.4-0.2l2.9-2.7v-0.2l0.2-0.1
		l0.1-0.2l0.5-0.3l0.8-0.7c0.6-0.5,1.1-1,1.7-1.6l0.6-0.8v-0.2l0.5-0.3l2.6-2.6l0.6-1.3l0.3-0.7l0.8-0.5l0.2-0.7l1.9-2.7l0.4-0.9
		l0.8-1.2L146,60l2.6-3.3l1-2l0.5-1.4l0.8-1.5l0.8-1l0.5-0.4l0.2-0.2l0.5-0.5c0.4-0.7,1-1.2,1.8-1.6c0.2,0,0.4,0,0.7,0.1v-0.3
		l0.6,0.1l0.4,0.4l-0.2,1.9l-0.8,1.2l0.2,0.5l-0.1,0.8l-0.7,1l-0.1,0.7l-0.3,0.1l0.2,0.5l-0.4,0.1l-0.3,0.3l-0.1,0.5l-0.2,0.5
		l-0.6,0.2l-0.8,1.4l0.1,0.2l-0.8,1.8l-0.5,0.2l-0.3,0.6l-0.1,0.2l-1.4,3.5l0.1,0.4l-0.4,0.6v0.6l-0.1,0.8l-0.1,0.3l-0.7,0.7
		l-0.1,0.5l-0.8,0.9l-1,2.6l-0.5,1.4l-0.5,1.2l-0.1,1.3l-0.6,1l-0.6,0.9l-0.2,0.1l-1.2,3l-0.4,0.8l-1.9,4.3l-0.7,2h-0.1l-0.4,1.4
		l-0.6,1.1c-0.8,2.4-1.8,5.3-2.2,6.3l-0.5,1.4l0.2,0.4v0.4l-0.6,0.6l-1.3,3.4l-0.2,0.3c-0.2,0.4-0.4,0.8-0.5,1.2l0.9-0.3
		c3-1.3,6-2.3,9.2-3.1c0.2,0.1,0.4-0.1,0.6-0.1l2-0.7l1.1-0.2l2.2-0.2l0.2,0.1l2.7-0.4l0.5-0.1l4.9-0.6l1.2-0.2h0.6L160,98h0.4
		l0.1,0.2v0.3l-0.3,0.1l-1.6,0.3l-0.3,0.1l-3.7,0.5l-0.1,0.1h-0.4l-1,0.2c-0.3,0-0.4,0.2-0.6,0.1l-0.2,0.1l-0.4,0.1l-3.8,0.8
		l-0.2,0.1l-0.8,0.2l-0.7-0.1c-3.2,0.8-6.4,1.8-9.4,3l-5.3,2.3l-2.1,5.2l-3.8,7.5l-0.4,0.6c0,0.1-0.1,0.1-0.1,0.2l-0.3,0.8l-0.1,0.2
		c-1.8,3.2-3.5,6.3-5.4,9.4l0.1,0.1l-1.9,3.2l-0.4,0.4l-1.9,2.8l-0.4,1.1l-0.3,0.5l-0.9,1.3l-0.5,0.8l-1.8,2.2l-0.3,0.6l-1.5,1.7
		c-3.4,4.5-3.5,4.8-5.4,7.1l-1.7,2.3l-0.5,0.6v0.1h-0.1l-3.9,4.7h-0.1l-6.6,7.7l-0.3,0.7l-0.4,0.5l-0.4,0.1
		c-3.2,3.6-6.6,7.3-9.6,10.4l-0.2,0.4l-0.4,0.3l-3.6,3.9h0.1v0.1l-0.2,0.4l-0.4,0.1l-1.4,1.2l-0.1,0.3l-0.3,0.6l-1.4,0.8l-0.8,0.8
		l-0.4,0.3l-0.2,0.2l-0.2,0.2h-0.2l0.1-0.1h-0.2l-7.6,6.4l-0.5,0.2c-3.9,3.3-8,6.2-12.3,8.9c-1.4,0.8-2.9,1.5-4.3,2.2
		c-0.8,0.4-1.5,1-2.3,1.3c-1,0.4-1.4,0-2.2,0.5c-1.9,0.7-3.9,1.1-5.9,1.4c-0.8,0.5-1.8,0.6-2.7,0.5c-0.5,0-0.9-0.1-1.3-0.2
		c-3.7,0-7.3-0.9-10.5-2.6l-0.9-0.6l-0.2,0.1l-0.4-0.1l-0.3-0.1v0.1h-0.2l0.1-0.1l-0.1-0.2l-0.1-0.3l-0.4-0.3l-0.4-0.9l-1-0.8
		l-0.3-0.7l-0.1-0.4l-0.6-1.2l-0.3-0.5v0.3l-0.4-0.1l-0.1-0.5l0.1,0.1l0.2,0.1l-0.1-0.2v-0.4l-0.1-0.2l-0.2-0.1L15,200l0.1-0.1
		l-0.1-2.2l0.2-1.1c-0.1-1.4-0.1-2.7,0-4.1l-0.1-0.6l0.1-0.7l0.1-0.8l0.3-0.6l0.1-0.4h0.1c0.4-2.5,1.3-4.9,2.6-7.1l0.3-0.5l1.2-2.1
		l0.2-0.4l0.5-1l1.1-0.9l0.5-0.7l0.5-1.4L23,175l3.2-4.9l0.5-0.3l0.3-0.9l0.8-1c0.6-0.8,1-1.4,1.9-2.5l0.8-0.7l2.2-2.2l0.5-1.1
		l0.7-0.6l1.6-1c1.3-1.1,1.5-1.2,1.5-1.2l0.5-0.5l3.9-3.4l1.5-1.2l2.9-2.5l0.3-0.2l0.1-0.3l1.6-0.7c3.8-2.9,4.6-3.5,6.2-4.8l0.7-0.3
		c1.1-0.9,2.3-1.6,3.5-2.4l5.4-3.4l1-0.8l1.9-1.1l1-0.6l4.6-2.8l4.2-2.3c0.8-0.4,1.5-0.8,2.1-1.4l1.2-0.6l0.8-0.1
		c0.5-0.3,1.1-0.6,1.7-0.9c1.1-0.6,1.6-0.8,3.3-1.8c0.4-0.3,0.9-0.4,1.4-0.7l0.8-0.7l0.6-0.2l1.9-0.8l8.9-4.4l0.6-0.6h0.6l5.7-2.8
		l2.5-1.3l1-0.3l1.7-1.5l1.4-0.5l2.6-1.3l4.3-1.8l4-1.6l2.3-1.1l3.2-1.1c0.2-0.1,0.5-0.2,0.7-0.3l0.9-0.4l0.6-1.2l0.5-1.3l0.7-1.7
		l1-2.9l0.1-0.6l1.1-2.4l0.1-0.9C135.5,92.2,135.4,92.1,135.5,92.1z M108.4,116.6l-4.8,2.6l-3.3,1.7l-3.2,1.6l-3.2,1.4l-3.8,2.1
		l-1.5,1l-0.7,0.1h-0.3l-1.3,0.9l-3.3,1.8l-2.8,1l-2.4,1.2c-0.4,0.3-0.8,0.5-1.2,0.7l-2.4,1.4l-0.4,0.6l-3.2,1.2
		c-0.3,0.2-0.6,0.4-1.6,1l-1.6,0.8l-0.6,0.7l-1.7,0.8c-1.3,0.8-2.7,1.6-4.1,2.6l-1.6,2l-0.3,0.1l-1.7,1l-2.8,1.9l-7.1,5.4l-2.5,2.2
		l-0.2,0.9l-1.6,1l-3.2,2.4l-3.9,4.4l-0.3,0.6l-0.8,0.4l-0.5,0.7l-1.2,1l-0.7,0.5c-0.7,0.7-0.8,0.8-1.8,1.8l-1.5,1.7
		c-2.2,2.5-4.2,5.1-6.1,7.9l-0.1,0.2l-0.6,0.8l-0.3,0.8l-0.4,0.6l-0.3,0.1l-1.1,2.1c-1.1,2.4-2,4.9-2.7,7.4l0.2,1.2v0.2l-0.5,0.5
		l-0.1,0.3c-0.1,0.8-0.2,1.7-0.3,2.6l0.2,0.3l0.1,0.8l-0.2,0.3l-0.1,0.3l0.5,3.1l0.1,0.3l-0.1,0.2l0.1,0.4c0.3,0.7,0.6,1.5,1,2.1
		l0.1,0.1l0.8,0.4l0.6,0.2l0.1,0.2l0.1,0.1l0.1,0.3l0.1,0.4l0.1,0.4l0.2,0.7l1.4,0.9H23l0.6,0.4l0.1,0.3c2.4,1,4.9,1.5,7.5,1.4h1.2
		l0.9-0.2c0.7-0.3,1.4-0.5,2.1-0.5c0.8-0.4,1.8-0.3,2.2-1c0.5,0.2,1.2-0.5,2.1-0.4c1-0.5,2-0.9,3.2-1c1-0.5,1.8-1.2,2.9-1.4
		c0.4,0.5,1.2-0.1,1.5,0.4c0.7-1.1,1.6-2.1,2.7-3c1.7-1.1,3.8-1.9,5.7-2.9l3.2-2.2c1-0.4,1.9-1.1,2.6-1.9c0.4-0.1,0.9-0.3,1.2-0.6
		c0.9-0.7,1.6-2,2.8-2.2c0.3-0.3,0.4-1.1,1.1-0.8l3.3-3l0.2-0.4l0.9-0.7l0.2-0.2l0.2-0.1c1.9-1.8,3.9-3.6,6.5-6.3l5.4-5.8l4.1-4.2
		l1.8-2.2l0.3-0.1l3.2-3.6l2-2.4c0.4-0.3,0.7-0.8,4.5-5.8l8.2-10.7l4.6-7.1l4.3-5.7l0.9-1.2c0.5-0.9,1.1-1.8,1.6-2.6l3.1-5.3l0.6-1
		l0.2-0.4l1.1-2.1l3.2-6.2c0.2-0.2,0.3-0.4,0.3-0.7l0.1-0.2l0.4-1.3l0.2-1l1.5-2.8l-4.2,1.8l-2.7,1.5l-1.9,1.3l-0.4,0.3l-0.7-0.2
		l-1.2,0.4l-4.7,1.8L108.4,116.6z"/>
	<path class="st0" d="M180.1,102l-0.2,0.8c-0.1,0.2,0.1,0.4,0,0.7l-0.4,1l-0.5,1l-0.7,0.7l-0.7,1l-0.3,0.5l-0.4,0.5l-0.6,0.7
		l-0.2,0.1c-1.4,1.7-3,3.3-4.6,4.7v0.2h-0.3l-0.9,0.8v0.1l-0.1,0.2l-0.4,0.1c-0.1,0.1-0.1,0.1-0.2,0.1l0.1,0.3l-0.4,0.1l-0.6,0.7
		h-0.1l-0.4,0.5l-0.6,0.3l-0.3,0.5l-0.6,0.6l-0.4,0.2l-1,0.3l-0.3,0.2l-0.5,0.2h-0.2c-1.3,0.8-2.5,1.6-3.7,2.1l-0.3,0.3l-0.3,0.1
		L160,122l-0.3,0.1l-0.7-0.1l-0.6,0.1l-1.7,0.2l-1.6,0.1v-0.1c-0.1,0-0.3,0.1-0.3,0.2c-0.5,0-0.9,0-1.4-0.1
		c-0.4-0.2-2.4-0.8-2.6-1.4l-0.1-0.8l-0.3,0.1l-0.2-0.5l0.3-1.7l0.4-1.6l0.3-0.6l0.9-1.3l0.6-0.6l0.1-0.3l1.3-1.3l1.1-1.6l0.2-0.5
		l0.3-0.4l1.7-1.9l0.5-0.6l0.4-0.2l0.1-0.2l0.6-0.6l0.1-0.3l0.1,0.2l1.9-2l0.4-0.5l0.3-0.1l0.7-0.7l0.5-0.8l0.7-0.9l1.2-0.7l1-1.2
		l0.6-0.5l0.7-0.6c0.8-0.7,1.5-1.5,2.2-2.1h-1.3c-0.5,0.2-1.1,0.4-1.7,0.5l-0.3,0.1l-0.1,0.1h-0.3l-1.1,0.2
		c-0.9,0.3-1.8,0.6-2.7,0.8h-0.1l-2.1,0.4l-1.1-0.1l-0.6-0.3l-0.3-0.4v-0.7l0.5-1.2l0.7-0.4l0.9-0.3l0.9-0.3l0.8,0.1l1.4,0.1
		c1.5-0.2,2.9-0.3,4.4-0.3l0.9-0.3l1.4-0.2l1.7-0.6h0.3l1.5-0.4c0.3-0.2,0.5-0.4,0.7-0.6l0.7-0.7l0.6-0.5l0.3-0.1l0.4-0.3l0.7-0.2
		l0.8-0.2c0.6-0.2,1.2-0.4,1.9-0.4l0.6-0.2l0.3,0.2c0.4,0,0.7,0.2,1.1,0.4l2.5-0.7l0.1-0.1l1-0.5l1.3-0.3l1.4-0.7l0.5-0.2l0.9-0.3
		l1.8-0.3l0.7-0.2l1.1-0.1h0.1c0.4-0.1,0.8-0.2,1.1-0.3c0.4-0.1,1-0.3,1.5-0.4l0.4-0.2l0.2-0.1h0.2l0.2,0.2l0.5-0.1l0.5-0.3l0.6-0.1
		l0.8-0.1h0.2l0.6-0.2L200,86l0.3-0.1l0.3-0.2h0.7h0.4c0.9,0,1.7,0,2.6,0.1l0.4,0.2l0.4-0.1l0.3,0.3c0.6,0.2,1.2,0.4,1.7,0.7h0.2
		l0.3,0.2l0.5,0.1l0.4,0.5l0.5,0.5v0.3l-0.5,0.6l-0.1,0.7l-0.6,1.6l-0.3,0.6v0.1c-0.1,0.1-0.1,0.2-0.1,0.3l-0.3,0.6l-0.5,0.3
		l-0.1-0.7l0.1-0.3v-0.2c0.1-0.4,0.2-0.9,0.4-1.3l0.1-0.5l0.3-1.7c0-0.1-0.1-0.2-0.1-0.3l-0.4-0.4l-1-0.3l-0.8-0.4l-1.4-0.1
		c-2,0-4,0.2-6,0.6l-1.4,0.2l-1.1,0.3c-0.8,0.2-1.5,0.4-2.3,0.7c-3.9,1-6.6,1.8-9.1,2.6l-0.2,0.1l-0.8,0.3l-0.4,0.3l-1.4,0.2
		c-1.4,0.4-2.8,1-4.4,1.4l-0.7,0.4l-0.7,0.1l-1.6,0.5l-0.4,0.3c0.8,0.1,1.7,0.3,2.5,0.5h0.2l0.3,0.2l0.2,0.1l0.4,0.2l0.8,0.3l1.3,1
		l0.4,0.6l0.6,1l0.2,1.6C180.2,101.1,180.2,101.5,180.1,102z M177.8,101.8l-0.1-0.5l0.2-0.9l-0.1-1.3V99l-0.6-0.8l-0.6-0.4l-0.7-0.3
		l-0.8-0.3l-0.7-0.2l-0.9-0.1l-0.8-0.3l-0.6-0.1c-0.1,0-0.1,0-0.2-0.1c-1,0.9-2,2-3.4,3.4l-0.7,0.8l-0.5,0.7l-2.9,2.4l-0.8,0.8
		l-0.6,0.5l-1.6,1.5l-0.1,0.1l-0.4,0.4l-1.2,1l-0.9,0.9l-0.9,0.8l-0.4,0.4l-1.1,1.1l-0.1,0.1l-0.8,1.3l-0.6,1.2l-0.3,0.7
		c-0.1,0-0.1,0.1-0.2,0.1c-0.5,0.8-0.8,1.6-1,2.5v0.2v0.4l-0.1,0.5l0.1,0.5l-0.1,0.2l-0.1,0.3c0.1,0.6,0.5,1.2,1,1.6h0.2l0.6,0.3
		c0.2,0,0.4,0,0.6,0c3-0.3,3.6-0.7,6.4-2.2c1.2-0.6,2.4-1.3,3.6-2.1l0.1-0.2h0.3l1-0.7l0.6-0.8l1.4-1.1l0.3-0.2h0.2l2.4-2.4l0.2-0.3
		l0.2-0.1c0.6-0.7,1.2-1.4,1.8-2.2l0.2-0.4l0.1-0.3l0.5-0.5l0.4-0.7l0.2-0.5l0.3-0.2l0.1-0.4l0.2-0.3l0.1-0.3h0.2
		C177.2,104,177.6,102.9,177.8,101.8L177.8,101.8z M179.6,91.4c-0.7-0.3-1.8,0.4-2.6,0.9L179.6,91.4z"/>
	<path class="st0" d="M219,95.1l-0.2,0.8c-0.1,0.2,0.1,0.4,0,0.7l-0.4,1l-0.5,1l-0.7,0.7l-0.7,1l-0.3,0.5l-0.4,0.5l-0.6,0.7
		l-0.2,0.1c-1.4,1.7-3,3.3-4.6,4.7v0.2h-0.3l-0.9,0.8v0.1l-0.1,0.2l-0.4,0.1c-0.1,0.1-0.1,0.1-0.2,0.1v0.3l-0.4,0.1l-0.6,0.7h-0.1
		l-0.4,0.5l-0.6,0.3l-0.3,0.5l-0.6,0.6l-0.3,0.2l-1,0.3l-0.3,0.2l-0.5,0.2h-0.2c-1.3,0.8-2.5,1.6-3.7,2.1l-0.3,0.3l-0.3,0.1
		l-0.3,0.5l-0.3,0.1l-0.7-0.1l-0.6,0.1l-1.7,0.2l-1.6,0.1v-0.1c-0.1,0-0.3,0.1-0.3,0.2c-0.5,0-0.9,0-1.4-0.1
		c-0.4-0.2-2.4-0.8-2.6-1.4l-0.1-0.8l-0.3,0.1l-0.2-0.5l0.4-1.7l0.4-1.6l0.3-0.6l0.9-1.3l0.5-0.6l0.1-0.3l1.3-1.3l1.1-1.6l0.2-0.5
		l0.3-0.4l1.7-1.9l0.5-0.6l0.4-0.2l0.1-0.2l0.6-0.6l0.1-0.3l0.1,0.2l1.9-2l0.4-0.5l0.3-0.1l0.7-0.7l0.5-0.8l0.7-0.9l1.2-0.7l1-1.2
		l0.7-0.5l0.7-0.6c0.8-0.7,1.5-1.5,2.2-2.1h-1.3c-0.5,0.2-1.1,0.4-1.7,0.5l-0.3,0.1l-0.1,0.1h-0.3l-1.1,0.2
		c-0.9,0.3-1.8,0.6-2.7,0.8h-0.1l-2.1,0.4l-1.1-0.1l-0.6-0.3l-0.4-0.4v-0.7l0.5-1.2l0.7-0.4l0.9-0.3l0.9-0.3l0.8,0.1l1.4,0.1
		c1.4-0.3,2.9-0.4,4.4-0.4l1-0.3l1.4-0.2l1.6-0.6h0.3l1.5-0.4c0.3-0.2,0.5-0.4,0.7-0.6l0.7-0.7l0.7-0.5l0.3-0.1l0.4-0.3l0.7-0.2
		l0.8-0.2c0.6-0.2,1.2-0.4,1.9-0.4l0.6-0.2l0.3,0.2c0.4,0,0.7,0.2,1.1,0.4l2.5-0.7l0.1-0.1l1-0.5l1.3-0.3l1.4-0.7l0.5-0.2l0.9-0.3
		l1.8-0.3l0.7-0.2l1.1-0.1h0.1c0.4-0.1,0.8-0.1,1.1-0.3c0.4-0.1,1-0.3,1.5-0.4l0.3-0.2l0.2-0.1h0.2l0.2,0.2l0.5-0.1l0.5-0.3l0.6-0.1
		l0.8-0.1h0.2l0.6-0.2l0.6,0.2l0.3-0.1l0.3-0.2h0.7h0.4c0.9,0,1.7,0,2.6,0.1l0.4,0.2l0.4-0.1l0.3,0.3c0.6,0.2,1.2,0.4,1.7,0.7h0.2
		l0.3,0.2l0.5,0.1l0.4,0.5l0.4,0.5v0.3l-0.5,0.5l-0.2,0.7l-0.6,1.6l-0.3,0.6v0.1c-0.1,0.1-0.1,0.2-0.1,0.3l-0.3,0.6l-0.5,0.3
		l-0.1-0.7l0.1-0.3v-0.2c0.1-0.4,0.2-0.9,0.3-1.3l0.1-0.5l0.4-1.7c0-0.1-0.1-0.2-0.2-0.3l-0.4-0.4l-1-0.3l-0.8-0.4l-1.4-0.1
		c-2,0-4,0.2-6,0.6l-1.3,0.2l-1.1,0.3c-0.8,0.2-1.5,0.4-2.3,0.7c-3.9,1-6.6,1.8-9.1,2.6l-0.2,0.1l-0.8,0.3l-0.4,0.3l-1.4,0.2
		c-1.4,0.4-2.8,0.9-4.4,1.4l-0.7,0.4l-0.7,0.1l-1.6,0.5l-0.4,0.3c0.8,0.1,1.7,0.3,2.5,0.5h0.2l0.3,0.2l0.2,0.1l0.4,0.2l0.8,0.3
		l1.3,1l0.4,0.6l0.6,1l0.2,1.6C219,94.2,219,94.7,219,95.1z M216.7,94.9l-0.1-0.5l0.2-0.9l-0.1-1.3v-0.1l-0.6-0.8l-0.6-0.4l-0.7-0.3
		l-0.8-0.3l-0.7-0.2l-0.9-0.1l-0.8-0.3l-0.6-0.1c-0.1,0-0.1,0-0.2-0.1c-1,0.9-2,2-3.4,3.4l-0.7,0.8l-0.5,0.7l-2.9,2.4l-0.8,0.8
		L202,98l-1.6,1.5l-0.1,0.1L200,100l-1.2,1l-0.9,0.9l-0.9,0.8l-0.4,0.4l-1.1,1.1l-0.1,0.1l-0.8,1.3l-0.6,1.2l-0.3,0.7
		c-0.1,0-0.1,0.1-0.2,0.1c-0.5,0.8-0.8,1.6-1,2.5v0.2v0.4l-0.1,0.5l0.1,0.5l-0.1,0.2v0.3c0.1,0.6,0.5,1.2,1,1.6h0.2l0.6,0.3
		c0.2,0,0.4,0,0.6,0c3-0.3,3.6-0.7,6.4-2.2c1.2-0.6,2.4-1.3,3.6-2.1l0.1-0.2h0.3l1-0.7l0.6-0.8l1.4-1.1l0.3-0.2h0.2l2.4-2.4l0.2-0.3
		l0.2-0.1c0.6-0.7,1.2-1.4,1.8-2.2l0.2-0.4l0.1-0.3l0.5-0.5l0.4-0.7l0.2-0.5l0.4-0.2l0.1-0.4l0.2-0.3l0.1-0.3h0.2
		C216.1,97.1,216.5,96,216.7,94.9z M218.5,84.5c-0.7-0.3-1.8,0.4-2.6,0.9L218.5,84.5z"/>
	<path class="st0" d="M281,102.1l-0.8,0.4l-0.4,0.7l-0.2,0.4l-0.9,0.4l-1.3,0.9l-1.1,0.8l-0.5,0.2l-0.3,0.1l-0.2,0.3v0.2l-0.1-0.1
		v-0.1l-0.4,0.1l-1,0.7l-0.8,0.2c-0.2,0-0.3,0.1-0.4,0.2l-0.6,0.2l-1.6,0.2l-1-0.8l-0.1-0.2l-0.8-0.8l-1-1.2v-0.5l-0.6-0.8l-0.1-2.4
		c-0.1-0.9-0.2-1.8-0.1-2.8l-0.1-0.4l0.1-0.6l-0.1-0.1l-0.3-1.7l0.3-1.7v-0.6l0-0.8v-0.3l0.1-0.3l0-0.2c0-0.1,0-0.1,0.1-0.1
		l-0.2-0.5V91l0.3-0.6l0.4-2V88v-0.4l0.1-0.4l0.1,0.1l0.3-1V86v-0.1v-0.5l0.1-0.4l0.1-0.2l0.1-0.2l-0.2-0.2l0.2-0.5l0-0.3l0.2-1
		l-0.3-1.1l-0.1-0.3l-0.5-0.8l-0.3-0.3c-0.1,0-0.2,0-0.2-0.1l-0.6-0.6l-1.5,2.3l-1,2l-1.8,1.9l-1.2,1.5l-0.7,1l-0.1,0.3l-0.2,0.1
		l-2.1,3l-0.3,0.1l-0.7,1.1l-0.4,0.4c-0.6,0.7-1.1,1.4-1.7,2.1l-0.5,1.2l-0.5,0.9l-1,0.9l-0.8,1.3l-0.5,0.4l-0.6,0.7l-0.9,0.7
		l-0.4,0.4l-0.6,0.6l-0.7,0.6l-2.3,2.2l-0.1,0.2v0.3h-0.3l-0.7,0.5l-0.2-0.1c-2.3,2-4.7,3.5-7,3.9c-0.8-0.1-1.7-0.2-2.5-0.5
		c-0.1-0.3-0.2-0.3-0.3-0.5h-0.1l-0.8-1l-0.4-1.6v-1.2l0.2-1l0.5-1.1v-0.6l0.4-0.7l0.6-2.2v-0.2l0.3-0.7l1.4-1.9l0.4-0.6l-0.1-1
		l0.1-0.3l0.4-0.4l3.3-4.2h0.1c0.9-1.3,1.9-2.6,2.8-3.6l0.1-0.1l0.7-0.9l0.5-0.4l1.1-1.1l0.4-0.5l0.5-0.4l0.7-0.6l0.9-0.6l0.7-0.9
		l0.2-0.1h0.2c1-0.8,2-1.5,3-2.1l0.2-0.3l0.2-0.2l0.4-0.1l0.9-0.5l0.9-0.9l0.4-0.2l0.6-0.1c0.5-0.3,1-0.6,1.5-0.9
		c1.2-0.5,2.6-0.7,3.9-0.6l0.6-0.1l0.7,0.2l0.6-0.1c0.2,0,0.3,0,0.4,0.2l1.1,1.7l0.3-0.5v-0.7l0.8-0.3l1.6-2.4l0.3-0.8l0.6-0.4
		l1.8-2.4l0.9-1.7l1.3-1.8l1.2-2l1.5-2.3l1.9-3.2v-0.1h0.1l1.2-2.1l0.8-1.6l0.5-1.1l0.4-0.4l0.2-0.7l0.8-1.3v-0.3l0.6-0.5l0.2-0.7
		l0.7-1.1l1.4-2.5l0.3-0.5l0.1-0.2h0.1l1.4-2.7l0.3-0.6l0.3-0.4l0.1-0.4l0.5-0.9v-0.2l0.3-0.2l0.1-0.5l0.4-0.8l1.2-2.3l0.5-0.8
		l0.3-0.6l1.2-2.2l0.3-0.7l1.3-2.3l0.9-1.3l0.4-0.6v-0.2l1-2l0.1-0.9l0.2-0.6l1-0.7l0.2-0.5l0.1-0.2l-0.1-0.4l0.1-0.3v-0.2l0.2-0.5
		v-0.1l0.2,0.1l0.3-0.4h0.2v-0.1l0.5-0.5l0.6-0.3l0.3-0.2l0.2,0.1l0.6-0.3l0.1-0.1l0.5-0.1l0.3,0h0.7l0.6,0.7l0.4,0.5l-0.8,2.1
		l-0.9,1.6h0.1l0.7,0.2l0.3,0.6l-0.6,0.8l-0.9,1.2l-0.3,0.8l-0.3,0.1l-0.1,0.3h-0.4l-1.2,0.6l-1.1,0.6h-0.2l-0.9,1.6l-0.6,0.8
		l-0.4,1l-1,0.5l-1.2,1.8l-0.5,1.1l-0.2,0.2l-0.4,0.8l-0.6,0.8l-1.7,3.5l-0.9,2l-1.1,1.8v0.3l-0.6,1.9l-0.4,0.5l-0.3,0.7l-0.5,1.1
		l-0.1-0.1l-0.5,1.1l-0.3,1.1l-0.1,0.4l-0.2,0.3l-1.7,3.3v0.2h-0.1l-0.6,1v0.3l-2.4,4.7l-0.3,0.4l-1.3,2.6v0.1h-0.1
		c-1.8,3.8-3.2,7-3.9,8.5V74l-0.1,0.2l-0.2,0.4l-0.2,0.5v0.1l-0.2,0.1c-0.9,2.2-1.7,4.4-2.4,6.7l-0.1,0.1c-0.1,0.1-0.1,0.3-0.1,0.4
		h0.1v0.2l-0.1,0.3l0.1,0.3v0.9l0.2,0.2l-0.2,0.2l0.1,0.1l-0.2,0.2l0.1,0.4l-0.2,1.3l-0.4,0.1l-0.1,0.2l-0.4,0.8l-0.1-0.1l-0.4,0.1
		l-0.2,0.5l-0.4,2.3h-0.1l-0.1,0.8l0.1,1.5l-0.3,1.4V96l-0.1,1.8l-0.2,0.8l-0.1,0.5c0,0.3,0.1,0.7,0.2,1c0.3,2.8,1.4,4.2,2.8,4.7
		l0.8,0.1l0.1,0.1c0.4,0,0.7,0,1.1,0l0.6-0.4l1.2-0.5l0.1-0.2l0.9-0.7l0.5-0.2l0.9-0.2l0.4-0.1c1.8-1.2,3.5-2.5,5.1-4l1-1l0.6-0.5
		l0.2-0.1l0.1-0.2l0.1-0.2l0.5-0.6l0.8-0.6l1-0.8l2-2.3l0.9-0.6l1.4-1.4l0.4-0.4l1.2-1.2l0.4-0.3l0.4-0.4l1-1v-0.1l0.2-0.2l1-1.5
		l0.8-0.5l0.7-0.6l0.1-0.1l2-2.3l0.1-0.2l1-0.9l0.1-0.3l0.1-0.1l0.3-0.1l0.1-0.2l0.1-0.4l0.2-0.2h0.3l0.1-0.1l0.5-0.1l0.5,0.6
		l-0.2,0.4l-0.4,0.2c0,0-0.1,0.1-0.1,0.1c0,0,0,0,0,0h-0.1l-5.3,6l-0.2,0.5l-0.2,0.2l-0.4,0.3l-0.3,0.2c-1.3,1.4-2.6,2.8-4,4.1
		l-1.2,1.3l0,0.2l-0.4,0.3l-0.4,0.7l-0.5,0.3l-4.6,4.4l-0.4,0.5l-1,1l-0.1,0.1h-0.2l-0.5,0.5v0.3l-0.3,0.1l0.3-0.2l0,0.3l-0.3,0.4
		l-0.4,0.1v-0.5l-0.1,0.1L281,102.1z M240.4,94.7l-0.7,1.2l-0.7,0.9l-0.2,1.3l-0.6,0.8l-0.4,1l-0.1,1.3l0.3,1.1l-0.1,0.3l0.1,0.4
		l-0.4,1.1v1.1l0.2,1.4l0.3,1.1l0.1,0.3l0.2,0.2h0.6l0.4-0.1l0.4-0.3c0.3-0.2,0.5-0.4,0.8-0.5l0.6-0.8l0.7-0.7l0.6-0.5l1.1-0.6
		l1-0.7c0.1,0,0.2-0.1,0.2-0.2c1.3-1.2,2.5-2.3,3.5-3.4l0.1-0.2l0.9-0.9c0.3-0.2,0.5-0.5,0.7-0.8l0.6-0.8l0.3-0.6l1.1-1.5l0.5-0.7
		l0.2-0.5l0.4-0.2l1.2-1c1.7-2.1,3.4-4.7,5.8-7.8l1.6-2v-0.3l1.2-1.8l0.6-1v0.2l0.6-0.5l0.4-1.1l0.5-1l-0.7-1.2l-1-0.7l-0.4-0.1
		l-0.2-0.2c-2.1-0.1-4.9,1.2-6.9,2.6l-1.4,1.2l-0.7,0.4l-0.6,0.3c-0.1,0.1-0.3,0.3-0.5,0.4c-2.1,1.7-3.7,2.3-7.2,6.6l-1,1.5
		l-0.6,1.3l-0.8,1v0.2v0.3l-0.7,0.7l-0.5,0.7l-0.6,0.9l-0.3,0.4h-0.1v0.3L240.4,94.7z M267.3,79.3l0.1,0.1l0.2,0.2l0.5,0.4l0.3,0.4
		h0.5l0.2,0.2v0.1l0.6-0.8v-0.2h0.1v-0.3h0.1v0.2h0.1l0.4-1.1l0.1-0.2l0.1-0.5l0.2-0.4l-0.1-0.9l0.2-0.2l0.2-0.5l0.5-0.4l0.2-0.6
		l0.1-0.1l0.7-1.8v-0.1l0.3-0.8l0.5-1.2l0.2-0.3c1.1-2.5,2.3-5,3.5-7.5c-1.6,2.3-3.8,5.6-5.9,8.7l-1,1.8l-0.5,0.7h-0.2l-2.8,4.4
		C266.8,78.9,267,79.2,267.3,79.3z"/>
	<path class="st0" d="M372.5,81.2l-0.3-0.6c-0.1-0.1-0.2-0.1-0.2-0.2c-0.3-0.4-0.5-1-0.5-1.5v-0.3v-0.9l0.3-1.4l0.3-1l0.4-0.6l0.6-1
		l0.7-1.5l0.6-1l0.1-0.3v-0.4l0.6-1.2l0.2-0.6l0.1-0.5l-0.1-0.4l-0.2,0.2h-0.2l-0.6,0.5l-0.4,0.2l-1.9,1.6l-0.6,0.8l-0.5,0.7
		l-0.6,0.3l-0.6,0.4l-1.6,1.3l-0.3,0.6l-1,0.9l-0.5,0.4l-1.4,1.4l-1.6,1.7l-0.2,0.4l-0.3,0.5l-0.5,0.3l-0.2,0.1
		c-0.3,0.3-0.6,0.6-0.9,0.9l-0.4,0.3l-0.6,0.5l-0.8,0.9l-0.5,0.4c-0.8,0.9-1.8,1.6-2.9,2h-0.1V85l-0.4,0.2l-0.4-0.2l-0.4-0.3
		l-0.7-0.9c-0.4-0.7-0.5-1.6-0.3-2.3l-0.1-1.9V79l0.3-1l0.2-0.2l0.5-1.8l0.2-0.4l1.1-2l0.4-1l0.1-0.2v-0.3l0.7-1.1l0.2-0.7l0.3-0.5
		l1.4-3.4l1.3-3l1-1.7l1.3-2.5l-1.4,0.2h-1.8l-0.3,0.2l-0.2-0.1c0,0,0,0.1-0.1,0.1c0,0,0,0,0,0l-1.4,1.1l-0.9,1.1l-2.8,2.1l-0.7,0.8
		l-2.8,2.7l-1.7,1.2l-0.3,0.1l-0.5,0.7l-0.1,0.1l-0.3,0.3l-2.3,2.3l-1,1l-0.6,1l-1.5,2l-1.2,1.2c-0.2,0.3-0.4,0.5-0.7,0.8l-0.4,1.2
		l-0.2,0.3l-0.6,0.9l-0.7,0.4l-0.2,0.5H338l-0.1,0.2l-0.3,0.1l-0.3,0.5l-0.2,0.1l-2,2.6V85l-0.4,0.4l-0.3,0.3l-0.2,0.1l-1,1.2
		l-0.4,0.6h-0.1l-0.8,1.1l0,0.3h-0.2l-0.2,0.1l-0.7,1.1l-1,1.1l-0.4,0.6l-0.1,0.2l-0.7,1.1l-0.5,0.8l-0.3,0.9l-0.2,0.5l-0.4,0.3
		L327,96l-0.1,0.1v0.3l-0.1,0.2l-0.4,0.3l-0.1,0.2v0.2l-0.1,0.3l0,0.3l-0.3,0.4v0.1h-0.2l-0.3,0.1l-0.1,0.2h-0.1l-0.1,0.1l-0.5,0.4
		l-1,0.5h-0.2v-0.1l-0.6,0.3l-0.5,0.1h-0.5l-0.2-0.3l-0.5,0.4h-0.2l-0.5-0.5l-0.3-0.3v-0.7l0.1-0.9l0.2-0.3l-0.1-0.1v-0.4l0.4-0.4
		l0.3-0.5l0.7-2l1.5-2.3l0.1-0.1v-0.4l0.3-0.1l0.7-1.7l0.5-0.8l0.4-0.9l0.1-0.4l0.2-0.4l0.5-1v-0.2l0.4-0.3l0.2-0.5l0.4-0.9l1.2-2.5
		l0.4-0.7l0.3-0.7l1.3-2.4l0.3-0.8l1.2-2.4l0.8-1.7l0.2-0.5l0.1-1l0.1-0.6l0.4-0.4L334,70l0.1-0.6l0.1-0.2l0-0.3l-0.1-0.2l0.1-0.3
		l-0.1-0.3l0.2-0.5h-0.1l0.1-0.1l0.1,0.1l0.2-0.2v-0.3h0.2V67l0.5-0.5l0.3-0.1l0.5-1.5l0.5-0.7l0.2-0.8l-0.2-0.1l0.3-0.7l0.1-0.3
		l0.1-0.4v-0.1l-0.1-0.1v-0.1h0.1v-0.8v-0.9l0.1-0.3l0.4-1l0.8-0.7l0.4,0.1l-0.1-0.4l0.2-0.2l0.3,0l0.1-0.3l0.4-0.2l1-0.3l0.5-0.1
		l0.5,0.1l0.3,0.2l0.1,0.5l-0.3,0.8l0.1,0.5l-0.1,0.5l-0.4,2l-1.3,1.2l-0.9,0.9l-0.1,0.1l-0.7,1.8v0.2l-0.3,0.6v0.6l-0.2,0.7
		l-0.1,0.4l-0.3,0.3l-0.1,0.1l-0.2,0.1l-0.1,0.2h-0.2v0.4l-0.3,0.4l-0.5,0.5l-0.6,1.2l-0.4,0.8l-0.2,0.9l-0.2,0.3l-0.9,0.9l-0.8,1.5
		l-0.6,0.5l-0.8,1.4v0.2l-0.5,0.7l-0.6,1.3l-0.1,0.8l-0.3,0.6l-0.5,0.9v0.3l-0.6,0.7l-0.6,1.1l-0.8,1.7l-0.7,1.6l-0.7,1.3l-1.2,2.6
		l-0.3,1.7l-0.1,0.4l0.1-0.1l0.4-0.1l0.2-0.2h0.3l0.2-0.1l0.1-0.2l0.5-0.4v-0.5l0.4-0.6l0.4-0.3l0.8-0.5l0.7-0.7l0.8-1l0.1-0.2
		l0.2-0.1l0.5-0.5l0.9-1.3l1.8-2.2l0.6-0.6l1.6-1.8l0.4-0.7L336,81l0.5-0.4l1.1-1.1l0.5-1l0.3-0.2l1.1-1.1l0.7-1l0.4-0.3l0-0.2
		l1.4-1.9l0.6-0.5l0.8-1.1l0.2-0.4l0.5-0.5l0.7-0.8l0.6-0.6l0.7-1.1l2-2.2l0.6-0.8l0.4-0.7l1.5-1l1-0.9l0.3-0.6l0.2,0.1l0.3-0.3
		l0.4-0.2l0.5-0.7l0.1-0.2l0.6-0.4l0.7-0.7l1-0.6l1.2-1l0.1-0.4l1.2-1l2.5-1l1.8-1.2l0.9-0.4l0.5-0.3l0.2-0.2l0.2-0.1h0.2l-0.1,0.2
		h0.8h0.4l0.7,0.8V56l-0.2,0.4c-0.5,1.2-1,2.4-1.7,3.5c-0.1,0.3-0.3,0.4-0.4,0.6l-0.6,0.8l-0.4,1l-1.1,1.7l-0.8,1.3l-0.1,0.3
		l-0.6,0.9l-1.7,4.4l-0.9,2.1l-0.5,2.3h-0.1v0.1l-0.7,2l-0.1,1.3l-0.2,0.4l-0.1,0.2L356,80l-0.1,0.2l0.2,0.6l0.3,0.7l0.2,0.4
		l0.3,0.3l0.1,0.3l0.1,0.1l1.3-0.8l0.3-0.2c0.5-0.5,1-1.1,1.5-1.7l0.4-0.5l0.4-0.3c0.6-0.7,1.1-1.4,1.8-2.2l0.9-1l0.5-0.5l1.9-1.9
		l3.4-3.6l0.3-0.6l0.3-0.3l0.6-0.4l0.4-0.1c0.1-0.2,0.3-0.3,0.5-0.4l0.2-0.3l0-0.2v-0.1l0.1-0.2v-0.3V67l0.4-0.3l-0.1-0.1h0.1
		l0.2,0.1l0.3-0.1l0.1-0.2h0.2l0.7-0.4l0.6-0.1l0.4-0.3h0.3l-0.1,0.1l0.6-0.2l0.1-0.1h0.5l0.5,0.1l0.3,0.2l0.1,0.4l-0.1,0.1h0.1
		l-0.1,0.2l-0.3,1.6v0.3l-0.3,1.2l-0.6,1.2l-0.3,1.4l-0.2,0.6l-0.4,0.8l-0.8,1.5l-0.3,0.7l-0.4,1l-0.2,0.8l-0.1,0.9l0.4,1l0.7,0.4
		c1.1,0.2,2.2,0.2,3.2-0.2l0.5-0.2v0.1c0.1,0,0.2-0.1,0.3-0.1l0.1-0.1l0.2-0.2l1.1-0.3l0.8-0.5l0.5-0.4l0.5,0.1l0.2-0.2l0.1-0.1
		l0.5-0.2l1.7-1.3l1-0.9l0.5-0.2l0.5-0.5h0.3l1.1-0.9l0.5-0.2l0.5-0.4l1.1-0.7l1-0.8l2.3-1.7l0.2-0.2l2.9-2.2L396,67l1.1-0.7
		l0.4-0.3l1-0.9l0.5-0.6l0.3-0.2l0.4,0.4v0.4l-0.4,0.3l-0.2,0.1l-0.4,0.3l-0.1,0.3l-0.1,0.2l-0.5,0.2l-2.4,2.2l-0.6,0.7l-0.3,0.1
		l-1,0.7l-0.7,0.7l-0.4,0.3l-0.1,0.2l-0.3,0.1l-1.4,1.1l-0.5,0.4l-0.4,0.3l-0.5,0.4l-0.3,0.3l-0.3,0.3l-0.7,0.6l0,0.1l-0.4,0.3
		l-0.3,0.3l-0.7,0.5l-1.2,0.7l-1.5,1l-0.6,0.6h-0.4l-0.8,0.5c-0.3,0.1-0.5,0.4-0.8,0.5l-0.2,0.1l-0.4,0.2l-1,0.4v0.1h-0.2l-0.5,0.4
		l-0.5,0.2l-0.5,0.1c-0.5,0.3-1.1,0.5-1.7,0.6l-0.9,0.2c-0.4,0-0.7,0-1.1,0h-0.3L372.5,81.2z"/>
	<path class="st0" d="M420.1,59.7l-0.2,0.8c-0.1,0.2,0.1,0.5,0,0.7l-0.4,1l-0.5,1l-0.7,0.7l-0.7,1.1l-0.3,0.5L417,66l-0.6,0.7
		l-0.2,0.1c-1.4,1.7-3,3.3-4.6,4.7v0.2h-0.3l-0.9,0.8v0.1l-0.1,0.2l-0.4,0.1c-0.1,0.1-0.1,0.1-0.2,0.1v0.3l-0.4,0.1l-0.6,0.7h-0.1
		l-0.4,0.5l-0.6,0.3l-0.3,0.5l-0.5,0.6l-0.3,0.2l-1,0.3l-0.3,0.2l-0.5,0.2h-0.2c-1.3,0.8-2.5,1.6-3.7,2.1l-0.3,0.3l-0.3,0.1
		l-0.3,0.5l-0.3,0.1l-0.7-0.1l-0.6,0.1l-1.7,0.2l-1.6,0.1v-0.1c-0.1,0-0.3,0.1-0.3,0.2c-0.5,0-0.9,0-1.4-0.1
		c-0.4-0.2-2.4-0.8-2.6-1.4l-0.1-0.8l-0.3,0.1l-0.2-0.5l0.3-1.7l0.4-1.6l0.3-0.6l0.9-1.3l0.5-0.6l0.1-0.3l1.3-1.3l1.1-1.6l0.2-0.5
		l0.3-0.4l1.7-1.9l0.5-0.6l0.4-0.2l0.1-0.2l0.6-0.6l0.1-0.3l0.1,0.2l1.9-2l0.4-0.5l0.3-0.1l0.7-0.7l0.5-0.8l0.7-0.9l1.2-0.7l1-1.2
		l0.7-0.5l0.7-0.6c0.8-0.7,1.5-1.5,2.2-2.1l-1.3,0c-0.5,0.2-1.1,0.4-1.7,0.5l-0.3,0.1l-0.1,0.1h-0.3l-1.1,0.2
		c-0.9,0.3-1.8,0.6-2.7,0.8l0,0.1l-2,0.5l-1.1-0.1l-0.6-0.3l-0.4-0.4v-0.6l0.5-1.2l0.7-0.4l0.9-0.3l0.9-0.3l0.8,0.2l1.4,0.1
		c1.4-0.3,2.9-0.4,4.4-0.4l1-0.4l1.5-0.2l1.7-0.6h0.3l1.5-0.5c0.3-0.2,0.5-0.4,0.7-0.6l0.7-0.7l0.7-0.5l0.3-0.1L416,49l0.7-0.2
		l0.8-0.2c0.6-0.2,1.2-0.4,1.9-0.4l0.6-0.2l0.3,0.2c0.4,0,0.8,0.2,1.1,0.4l2.5-0.7l0.1-0.1l1-0.5l1.3-0.3l1.4-0.7l0.5-0.2l0.9-0.3
		l1.8-0.3l0.7-0.2l1.1-0.1h0.1c0.4-0.1,0.8-0.1,1.1-0.3c0.5-0.1,1-0.3,1.5-0.4l0.3-0.2l0.2-0.1h0.2l0.2,0.1l0.5-0.1l0.5-0.3l0.6-0.1
		h0.8h0.2l0.6-0.2l0.6,0.2h0.3l0.3-0.2h0.7h0.4c0.9,0,1.7,0,2.6,0.1l0.4,0.2l0.4-0.1l0.3,0.3c0.6,0.2,1.1,0.4,1.7,0.7h0.2l0.3,0.2
		l0.5,0.1l0.4,0.5L449,46l0,0.3l-0.5,0.5l-0.2,0.7l-0.5,1.6l-0.3,0.6v0.1c-0.1,0.1-0.1,0.2-0.1,0.3l-0.3,0.6l-0.5,0.3l-0.1-0.7
		l0.1-0.3v-0.2c0.1-0.4,0.2-0.9,0.3-1.3l0.1-0.5l0.4-1.7c0-0.1-0.1-0.2-0.2-0.3l-0.3-0.4l-1-0.3l-0.8-0.4l-1.4-0.1c-2,0-4,0.2-6,0.6
		l-1.3,0.2l-1.1,0.3c-0.8,0.2-1.5,0.4-2.3,0.7c-3.9,1-6.6,1.8-9.1,2.6l-0.2,0.1l-0.8,0.3l-0.4,0.3l-1.5,0.2c-1.4,0.4-2.8,1-4.4,1.4
		l-0.7,0.4l-0.7,0.1l-1.6,0.5l-0.4,0.3c0.8,0.1,1.7,0.3,2.5,0.5h0.2l0.3,0.2l0.2,0.1l0.4,0.2l0.8,0.3l1.3,1l0.4,0.6l0.6,1l0.2,1.6
		C420.3,58.8,420.2,59.2,420.1,59.7z M417.9,59.4l-0.1-0.5L418,58l-0.1-1.3v-0.1l-0.6-0.8l-0.6-0.4l-0.7-0.3l-0.8-0.3l-0.7-0.2
		l-0.9-0.1l-0.8-0.3l-0.6-0.1c-0.1,0-0.2,0-0.2,0c-1,0.9-2,2-3.4,3.4l-0.7,0.8l-0.5,0.7l-2.9,2.5l-0.8,0.8l-0.6,0.5l-1.6,1.5
		l-0.1,0.1l-0.4,0.4l-1.2,1l-1,0.9l-0.9,0.8l-0.4,0.4l-1.1,1.1l-0.1,0.1l-0.8,1.3l-0.6,1.2l-0.3,0.7c-0.1,0-0.1,0.1-0.2,0.1
		c-0.5,0.8-0.8,1.6-1,2.5V75v0.4l-0.1,0.5l0.1,0.5l-0.1,0.2v0.3c0.1,0.6,0.5,1.2,1,1.6h0.2l0.6,0.3c0.2,0,0.4,0,0.5,0
		c3-0.3,3.6-0.7,6.4-2.2c1.2-0.6,2.4-1.3,3.6-2.1l0.1-0.2l0.3-0.1l1-0.7l0.6-0.8l1.3-1.2l0.4-0.2h0.2l2.5-2.4l0.2-0.3l0.2-0.1
		c0.6-0.7,1.2-1.4,1.8-2.2l0.2-0.4l0.1-0.3l0.5-0.5l0.4-0.7l0.2-0.5l0.3-0.2l0.1-0.4l0.2-0.3l0.1-0.3h0.2
		C417.2,61.6,417.6,60.5,417.9,59.4z M419.6,49c-0.7-0.3-1.8,0.4-2.6,0.9L419.6,49z"/>
	<path class="st0" d="M443.7,62.1l-0.1,0.4l0.6-0.8l1.1-1.1l0.3-0.3l0.2-0.1h0.2V60l0.7-0.4l-0.4-0.3l0.5-0.1l1.4-1.8h0.3l1.2-1.7
		l1.4-1.3l1.3-1.4l0.1-0.2h0.1l1.5-1.7l0.1-0.1l2.2-2.2v0.1l1.4-1.4l0.4-0.5l0.3-0.2l0.7-0.7l0.1-0.2h0.1l1.6-1.4l0.6-0.8l0.5-0.5
		l1.3-0.8l0.8-1.1l0.9-0.7l1.8-1l0.8-0.5c0.9-0.7,1.8-1.4,2.7-2l0.5-0.5l1.5-0.9l1.5-0.8l0.2-0.2l0.7-0.6l0.9-0.5l0.6-0.4l1.1-0.3
		c1.2-0.7,2.6-1.1,4-1.4l0.5-0.3l0.4,0.3c0.4,0.1,0.8,0.3,1.2,0.5c0.1,0.1,0.2,0.2,0.2,0.3l0.8,0.6l0.2,2.4l-0.7,2.3l-1,0.5l-1,0.2
		l-0.6-0.5l-0.2-0.9l-0.4,0.4l-0.1-0.5l0.2-0.1v-0.5l-0.2-0.6l-0.4-1.1l-0.4-0.4l-1.3,0.4l-1.2,0.8l-0.4,0.2h-0.7l-0.9,0.6l-0.5,0.2
		l-3.5,1.3c-1.6,1-2.9,2-3.4,2.3l-0.5,0.4l-0.4,0.5l-3.3,2.5l-1.2,1l-0.4,0.6l-1.5,1.2l-0.4,0.3l-0.7,0.8l-1.2,1.1l-0.4,0.7
		l-2.3,2.2l-3.3,3.9l-0.4,0.9l-0.5,0.6l-1,1.5l-0.9,1.2l-0.3,0.2l-0.6,0.6l-0.5,0.7l-0.1,0.2l-0.6,0.8l-0.6,1l-0.4,0.5l-0.3,0.3
		l-0.7,1.1l-0.3,0.7l-0.3,0.3l-0.3,0.5l-0.8,1l-1.3,1.8l-0.3,0.8l-0.3,0.5l-0.3,0.9l-0.1,0.6l-0.1,0.2l-0.1,0.5l-0.4,0.6l-1.3,1.3
		l-0.8,0.8h-0.8l-0.6-0.6v-0.1c-0.2-0.2-0.4-0.5-0.3-0.9l-0.1-0.4l0.1-0.2l0.1-1.1l-0.1,0.2l-0.1-0.3l0.1-0.7l0.2-1.1l0.5-1l0.1-0.2
		v-0.2l0.3-0.3l0.2-0.5v-0.2l0.7-0.8h0.2l0.2-0.2l0.8-1.7l0.5-1l0.3-0.1l0.3-1l0.3-1.4l0.5-0.7l0.1-0.6L443,59l0.2-0.2l0.9-2
		l-0.1-0.3l1.2-2.2l0.6-1.7l0.3-0.6l0.3-0.9v-0.3l0.1-0.2l0.5-1l0-0.3l0.4-1l0.5-0.2l0.3,0.1l0.4-0.7l0.2-0.7v-0.5l0-0.3l-0.4-0.1
		l0.2-0.3l0,0.2l0.2-0.4l-0.1-0.1l-0.3,0.5c-0.4,0.5-0.8,0.1-0.9-0.3l0.1-0.2v-0.2V45l0.2-0.5l0.1-0.2l-0.2-0.2l-0.1,0.1l-0.5-0.1
		l0-0.3l0.1-0.2l0.3-0.2h-0.2l0.2-0.1h-0.2l-0.1-0.3l0.3-0.6l0.5,0.2l0.2-0.5l-0.1-0.4v-0.3l-0.2-0.1l0.4-0.2l-0.1-0.5l0.2-0.1h0.2
		l0.3-0.4l0.5-0.1h0.6h0.5l0.3-0.2v-0.2l0.3-0.3h0.4h0.3l0.2,0.2l-0.1,0.1l-0.4,0.3c0.6,0.1,1.1,0.4,1.4,1l0.1,0.1v0.3
		c0.2,1.1-0.5,2.5-1.3,3.8l0.1,0.2l-0.8,1.4l-0.5,0.2l-0.6,1l-0.3,0.5l-0.2,0.7h-0.1c-0.3,0.7-0.7,1.5-1.1,2.1c0,0.1-0.1,0-0.1,0
		l-0.4,0.9l-0.1,0.6l-0.3,0.7l-0.6,1.5l-0.4,0.7l-0.1,0.4l-0.4,1l-0.8,1.9l-0.4,1.5l-0.4,1l-0.4,0.5L443.7,62.1z"/>
	<path class="st0" d="M485.9,53.1l0.2-0.5l0.1-0.1l0.4-1l0.5-1.2l0.7-1.6l0.2-0.6l1.4-2.9l0.3-0.8l0.2-0.4l0.8-2.1l0.6-1.6l0.6-1.5
		l0.2-1.1l-0.1-0.5h-0.2V37l0.1-0.2l-0.4-1.4l-0.1-1.7l0.1-0.6l0.4-2.2l1.4-1.4l1-0.4l1,0.4l0.3,0.5l0.1,0.7l0.3-0.2l-0.1,0.3h-0.2
		l-0.1,0.2l-0.1,0.6c0,0.1,0.1,0.2,0.1,0.3c-0.1,1.2-0.3,2.3-0.8,3.4v2.5l-0.7,1.2l-0.5,0.5l-0.7,1.4l-0.4,1.2l-0.3,0.9l-0.2,1
		l-0.6,0.7l-0.1,0.4l-0.1,0.6v0.2l-0.3,0.2l-1.4,2.9l-0.1,0.8l-0.8,1.5l-0.3,1.3l-1.4,3.3l-0.2,0.8l-0.7,1.6v0.1l-0.1,0.5l-0.2,0.1
		l-0.2,0.6l-0.2,0.9c0.3-0.4,0.6-0.8,0.8-1.2l0.2-0.4l0.1-0.1l0.2-0.6l0.5-0.5l0.2-0.3l0.4-0.7l0.5-0.5l0.7-1l0.4-0.3
		c1-1.3,1.9-2.7,3-4l0.4-0.6l0.1-0.3l0.7-0.7l0.5-0.5l1.3-1.2l0.2-0.3l1.8-1.7l0.4-0.3c0.7-0.5,1.4-1.1,2-1.6
		c0.8-0.6,1.8-1.1,2.8-1.2V42l1.7-0.2l0.8,0.6l1,0.7l0.5,1.4l0.1,0.6l0.1,0.9v1.2v0.6l0.1,0.7l-0.1,2.3v0.2l0.8,0.7l0.5,1l0.2,0.2
		l-0.1,0.2l-0.1,0.7l0.1,0.7l0.5,0.6l0.4,0.3l0.8,0.5c1.5-0.2,2.9-0.6,4.3-1.1l1.7-1l0.5-0.2l1.1-0.7l0.5-0.2l1.6-0.9l1.1-0.9
		l0.8-0.2l0.8-0.4l1.4-0.8c1-0.6,2-1.4,3-2.1l0.8-0.8l0.4-0.2l2-1.5l0.5-0.6l0.6-0.8l0.7-0.7l2.3-1.5l2.7-2.3l0.3-0.4l1.1-0.9h0.3
		v-0.2l0.3,0l0.7-0.7l0.2-0.2l0.5-0.1l0.3,0.3l0.1,0.4l-0.2,0.2l-0.4,0.3c-1.3,1.2-2.5,2.4-3.9,3.6l-0.6,0.8l-0.6,0.3l-0.6,0.5h-0.2
		l-1,0.9l-0.2,0.2l-0.3,0.2c-0.1,0-0.2,0.1-0.2,0.2l-0.2,0.2l-0.4,0.3h-0.1c-0.8,0.7-1.7,1.4-2.6,2l-1.3,1.1l-3.4,2.5l-0.3,0.2
		l-0.1,0.1l-1,1.2l-0.9,0.7l-1.2,0.4l-1.2,1l-0.6,0.4l-0.8,0.3l-1,0.4l-0.6,0.2l-0.3,0.2l-0.3,0.2l-0.3,0.1
		c-0.7,0.3-1.4,0.5-2.1,0.7l-1.2,0.3l-0.4,0.3l-0.3,0.2l-0.8,0l-0.5,0.3h-0.7h-0.2c-1.1,0.3-2.1-0.5-3.2-0.7c-0.6-0.1-1.1-0.5-1.4-1
		l-0.1-0.3c-0.2-0.5-0.3-0.9-0.4-1.4l-0.1-0.9l0.2-1.1l0.2-1.7h-0.1l0.1-0.2l0.3-3.4h-0.1l-0.2-0.1l0.3-0.7
		c-0.1-1.4-0.5-2.4-1.7-2.5c-0.5,0-0.8-0.2-1.5,0.2l-0.8,0.6l-0.6,0.7c-0.1,0-0.1,0.1-0.2,0.1l-1.7,1.6l-0.1,0.3l-0.2,0.2l-1.2,1.7
		l-0.6,0.5l-0.1,0.6l-2.4,2.5l-0.3,0.2l-0.6,0.6l-0.3,0.2l-0.2,0.8l-0.6,0.7l-0.2,0.2l-0.6,0.6l-0.5,0.7l-0.3,0.3l-0.2,0.8l-0.8,0.9
		l-0.7,0.8c-1.1,1.6-2.1,3.1-3.3,4.7l-0.3,0.6l-0.1-0.1l-0.7,0.9c-0.1,0-0.1,0-0.2,0.1l-0.1,0.2l-0.3,0.1l0.1,0.2v0.2l-0.3-0.2
		l-0.2,0.4l-0.4,0.2l-0.8-0.1l-0.5-0.8l-0.3-1.8l0.4-1.6l0.4-0.6l0.7-1.1l1-0.7v-0.3h0.1l0.2,0.1l-0.1-0.2l0.2-0.2L484,58l0.2-1.2
		l0.4-0.6l0.1-0.5l1-2.2L485.9,53.1z"/>
	<path class="st0" d="M555.6,46.4l-0.8,0.9l-1.2,0.8l-0.8,0.3l-0.4,0.3l-0.1,0.2l-0.2,0.2l-1.1,0.7l-0.7,0.5l-0.1,0.2l-0.2,0.2
		l-0.6,0.3l-1.2,1l-0.5,0.4l-1.2,1.1l-0.7,0.4l-0.5,0.4l-0.9,0.7l-0.8,0.5l-0.5,0.3l-1.4,0.5l-1.2,0.8l-1,0.4l-1.5,0.2l-0.9,0.4
		l-1.8-0.1c-0.9,0-1.7-0.4-2.3-1l-0.4-0.3v-0.6c-0.3-0.8-0.3-1.6-0.2-2.5l-0.1-0.4l0.3-1.9l0.4-1.9l0.1-0.7l0.4-1.2l0.5-0.8l0.1-0.4
		l0.5-0.5c0.1-0.3,0.3-0.6,0.5-1l0.5-1.2L536,43l0.2-0.6l0.2-0.3l0.1-1l0.7-1l0.5-0.4l0.3-0.6l0.7-0.9l1.2-3.2l0.2-1.4l0.8-1.4
		l0.5-0.6l0.2-0.8l0.3-0.3v-0.9l-0.1-0.5l0.3-0.8l0.5-0.6l0.2-0.2h0.2v-0.2l0.5-0.7l0.6-0.5c0.2-0.6,0.7-0.9,1.3-1
		c0.1,0,0.2,0.1,0.3,0.1l0.2-0.2l0.1-0.2l0.5-0.2h0.7L548,25l0.1,0.4v1l-0.5,1.1l-0.7,1.1l-0.2,0.3l-0.3,0.3h-0.2l-0.5,0.3l-1.3,1.7
		l-0.1,0.5l-0.1,0.2l-1,1.5c-0.1,0.2-0.2,0.3-0.3,0.4v0.6l-0.7,0.9l-0.5,1l-0.6,0.8l-0.1,0.4l-0.5,0.6l-0.2,0.7l-0.1,0.3l-0.8,1.4
		l-1.1,1.8l-0.5,1l-0.4,0.9l-0.7,1.9c-0.3,0.4-0.5,0.8-0.7,1.2l-0.3,1.7l0,0.8l-0.5,1.7l-0.2,2L535,54v1.1c0.3,0.8,0.4,0.8,0.4,0.9
		l0.4,0.1l0.5-0.2l0.3,0h0.7l0.5-0.3l0.5-0.2l0.4,0.1l0.4-0.1l1.8-0.8h0.3c0.4-0.3,0.9-0.5,1.4-0.7l0.4-0.3l1-0.8l0.7-0.6l1.7-0.8
		l1.3-0.8l0.8-0.3l2.9-2.1l0.1-0.4l0.5-0.1l1.5-1.1l0.1-0.1l0.1-0.3l0.7-0.5l0.3,0l0.2-0.4l0.5-0.3l0.7-0.5l0.8-0.7l0.7-0.6l0.9-0.9
		l0.2-0.3l1-0.8L560,41l0.3-0.3l1.7-1.4h0.3l0.5-0.6l0.4-0.3l0.4-0.3c0.2,0,0.2-0.1,0.3-0.1l0.4-0.5l0.6-0.4l0.3-0.4l0.6-0.5
		l0.8-0.6l0.4-0.3c0.6-0.6,1.3-1.3,2.2-2l0.1-0.4h0.3h0.3l0.4,0.5l-0.2,0.4l-0.2,0.2l-0.5,0.4l-0.1,0.3l-0.2-0.1h-0.1v0.2l-1.1,0.8
		l-0.3,0l-2.5,2.2l-0.7,0.8l-0.7,0.9l-0.8,0.4l-0.5,0.4c-1.5,1.5-2.9,2.8-4.3,4l-0.3,0.5l-0.2,0.2l-1,0.5l-0.2,0.2l-0.2,0.2
		L555.6,46.4z M556.1,3.8l-0.5,1.4l-0.3,0.5l-0.2,0.4v0.1l-0.9,0.3l-0.8,0.3l-0.7,0.4l-0.6,0.7L552.1,8l-0.3,0.2l-0.3,0.8l-0.8,0.4
		l-0.5,1.5l-0.8,0.4l-0.3,0.5l-0.5,0.8V13l-0.9,0.8l-0.2-0.7l0.3-0.3c0-0.1,0.1-0.3,0.1-0.6l0.8-1.7l-0.3-0.7l0.4-1.5l0.2-0.6
		l0.7-1.2l0.5-0.8l0.2-0.1l0.8-1.2l0.3-0.5l0.6-0.6l0.4-0.8h0.1l0.3-0.4h-0.2l0.4-0.3V2l0.5-0.7l0.8-0.4l0.8,0.6l1,0.2l-0.1,1
		l0.3,0.4L556.1,3.8z"/>
	<path class="st0" d="M566.5,38.9l0.2-0.5l0.1-0.1l0.4-1l0.4-1.2l0.7-1.6l0.2-0.6l1.4-2.9l0.3-0.8l0.2-0.4l0.7-2.1l0.7-1.6l0.6-1.5
		l0.2-1.1l-0.1-0.5h-0.2v-0.2l0.2-0.2l-0.4-1.4l-0.1-1.7l0.1-0.6l0.3-2.2l1.4-1.4l1-0.4l1,0.4l0.3,0.5l0.1,0.7l0.3-0.2l-0.1,0.3
		h-0.2l-0.2,0.2l-0.1,0.6c0,0.1,0.1,0.2,0.1,0.3c-0.1,1.2-0.3,2.3-0.8,3.4v2.5l-0.5,1.1l-0.5,0.5l-0.7,1.4l-0.3,1.2l-0.3,0.9l-0.2,1
		l-0.6,0.7l-0.1,0.4l-0.1,0.6v0.2l-0.3,0.2l-1.4,2.9l0,0.8l-0.8,1.5l-0.3,1.3l-1.4,3.3l-0.2,0.8l-0.7,1.6V44l-0.1,0.5l-0.2,0.1
		l-0.2,0.6l-0.2,0.9c0.3-0.4,0.6-0.8,0.8-1.3l0.2-0.4l0.1-0.1l0.2-0.6l0.5-0.5l0.2-0.3l0.4-0.7l0.5-0.5l0.7-1l0.4-0.3
		c1-1.3,1.9-2.7,3-4l0.4-0.6l0.1-0.3l0.7-0.7l0.5-0.5l1.3-1.2l0.2-0.3l1.8-1.7l0.4-0.3c0.8-0.5,1.4-1.1,2-1.6c0.8-0.6,1.8-1,2.9-1.2
		v-0.1l1.7-0.2l0.8,0.6l1,0.6l0.5,1.4l0.1,0.6l0.1,0.9V33v0.6l0.1,0.7l-0.2,2.3v0.2l0.8,0.7l0.5,1l0.2,0.2l-0.2,0.2l-0.1,0.7
		l0.1,0.7l0.5,0.6l0.4,0.3l0.8,0.5c1.5-0.2,2.9-0.6,4.3-1.1l1.7-1l0.5-0.2l1.1-0.7l0.5-0.2l1.6-0.9l1.1-0.9l0.8-0.2l0.8-0.4l1.4-0.8
		c1-0.6,2-1.4,3-2.1l0.8-0.8l0.4-0.2l2-1.5l0.5-0.6l0.6-0.8l0.7-0.7l2.3-1.5l2.7-2.3l0.3-0.4l1.1-0.9h0.3v-0.2l0.3,0l0.7-0.7
		l0.2-0.2l0.5-0.1l0.3,0.3l0.1,0.4l-0.2,0.2l-0.4,0.3c-1.3,1.1-2.5,2.4-3.9,3.5l-0.6,0.9l-0.6,0.3l-0.6,0.5h-0.2l-1,0.9l-0.1,0.2
		l-0.3,0.1c-0.1,0-0.2,0.1-0.2,0.2l-0.2,0.2l-0.4,0.3h-0.1c-0.8,0.7-1.7,1.4-2.6,2l-1.3,1.1l-3.4,2.5l-0.3,0.2l-0.1,0.1l-1,1.2
		l-0.9,0.7l-1.2,0.4l-1.2,1l-0.6,0.4l-0.8,0.3l-1,0.4l-0.6,0.2l-0.3,0.2l-0.3,0.2l-0.3,0.1c-0.7,0.3-1.4,0.5-2.1,0.7l-1.2,0.3
		l-0.4,0.3l-0.3,0.2l-0.7,0l-0.5,0.3h-0.7H590c-1.1,0.3-2.1-0.5-3.2-0.7c-0.6-0.1-1.1-0.5-1.4-1l-0.2-0.3c-0.2-0.5-0.3-0.9-0.3-1.4
		l-0.2-0.9l0.2-1.1l0.2-1.7H585l0.2-0.2l0.3-3.4h-0.1l-0.2-0.1l0.3-0.7c-0.1-1.4-0.5-2.4-1.7-2.5c-0.6,0-0.8-0.2-1.5,0.2l-0.8,0.6
		l-0.6,0.7c-0.1,0-0.1,0.1-0.2,0.1l-1.7,1.7l-0.1,0.3l-0.2,0.2l-1.2,1.7l-0.7,0.5l-0.1,0.6l-2.4,2.5l-0.3,0.2l-0.6,0.6l-0.3,0.2
		l-0.2,0.8l-0.6,0.7l-0.2,0.2l-0.6,0.6l-0.5,0.7l-0.3,0.3l-0.2,0.8l-0.8,0.9l-0.7,0.8c-1.1,1.6-2.1,3.2-3.3,4.8l-0.3,0.6L565,50
		l-0.7,0.9c-0.1,0-0.1,0-0.2,0.1l-0.1,0.2l-0.3,0.1l0.1,0.2v0.2l-0.3-0.2l-0.2,0.4L563,52l-0.8-0.1l-0.5-0.8l-0.3-1.8l0.4-1.6
		l0.3-0.6l0.7-1.1l1-0.7V45h0.1l0.2,0.1l-0.1-0.4l0.2-0.2l0.2-0.8l0.3-1.2l0.3-0.6l0.1-0.5l1-2.2L566.5,38.9z"/>
	<path class="st0" d="M574.8,130.9L574.8,130.9v-0.8l0.1-0.3l-0.2-1.2l0.3-1.1l-0.2-1.2v-1.3l0.1-0.8l0.9-1.4l0.1-0.1
		c0-0.1,0.1-0.2,0-0.3V122l0.2-0.6c0.5-2,1-4,1.7-6.1v-0.9l0.3-0.5l0.1-1.2l0.3-0.7l0.3-0.9l0.1-0.6l0.2-0.7l0.6-1.1l1.1-1.4
		l2.2-4.9l2.8-5c0.3-0.7,0.6-1.3,1-1.9v-0.3l0.4-1l0.9-1.1l0.5-1.4l0.9-1.3l0.8-0.8l0.4-0.5l0.4-0.6l0.4-0.4c1-1.5,2-3.2,3.2-5.4
		l0.7-0.8l0.1-0.9l1-0.9h0.1l0.7-0.7l1.9-2.8l0.3-1l0.5-0.6l0.8-1l1-1.2l0.5-0.7l0.5-0.8l1.2-1.3l2-2.7l0.1-0.5l-0.1-0.4l0.3-0.1
		l0.4-0.2c1.8-2.2,3.4-4.2,5-6l0.1-0.2l0.4-0.6l0.2-0.2l0.7-0.4c0.2-0.3,0.4-0.5,0.7-0.8l3.8-3.9l0.1-0.5l0.2-0.2l0.5-0.1l0.9-0.8
		l1-1.5l2.1-1.8h0.1c1.9-1.9,3.8-3.8,5.7-5.6l0.2-0.5l0.8-0.4l4.6-4.2l0.5-0.7h0.1l0.3-0.3v-0.5l0.2-0.2h0.7l0.3-0.2l0.8-1l0.5-0.5
		l0.7-0.5l1-0.5l0.8-0.6l0.1-0.1l1.4-2.9l0.1-0.1c0.3-0.6,0.4-1.3,0.7-2.2l1.1-3.2l0.1-0.4l0.5-1.5l0.7-2.4h0.1l0.4-1.8l0.3-2.2
		l-0.1-0.4l-0.3-0.4l-0.1-0.1L644,16l-0.3,0h-0.5l-0.9,0.6h-0.6l-0.2,0.2h-0.2l-0.4,0.3l-0.1,0.3l-0.2,0.3l-0.7,0.5h-0.4l-0.2,0.3
		l-2.3,2.2l-0.1,0.3l-0.3,0l-2.7,2.5l-0.3,0.1l-0.5,0.4l-0.6,0.4l-1.8,1.6l-0.9,1.1l-2.6,1.6l-0.2,0.2l-0.2,0.2l-0.5,0.3L626,30
		l-0.1,0.1l-0.3,0.1l-2.6,2.2l-0.6,0.8l-0.5,0.5l-0.2,0.3l-0.1,0.6l-0.2,0.1l-0.7,0.1l-0.6,0.3l-1.6,0.5l-0.3,0.2
		c-1.4,1-3,1.7-4.8,2c-0.3,0.1-0.5,0-0.6-0.3l-0.5-0.5l-0.5-0.7l-0.1-0.5l0.1-0.5v-1.3l0.2-0.3l0.1-0.2l0.3-0.7
		c0-0.1,0.1-0.2,0.1-0.3c0.1-0.2,0.3-0.3,0.3-0.6h0.1l0.8-1.6l0.5-0.5l1.5-2l0.2-0.4l0.3-0.2l0.8-1l0.1-0.1l0.5-0.6l0.1-0.2l0.7-0.8
		l0.7-1.3l0.5-0.5l0.3,0l0.5-0.6l0.4-0.4l0.7-0.9h0.1l0.3-0.1l0.2-0.1l0.1-0.3h0.3c1-1,1.1-1.1,2.1-2.1l0.4-0.5l1.8-1.6l0.3-0.1
		l0.3-0.3l0.9-0.8l0.2-0.2l1.8-1.6l0.6-0.6l0.5-0.7L632,11l0.5-0.4l1.6-0.5c2.4-1.8,4.7-3.2,5.6-3.2c0.5,0,1,0,1.5,0.2
		c0.4,0.2,0.7,0.9,1.1,1.1c0.4,0.9,0.6,1.9,0.6,2.9l-0.1,0.3v0.6l-0.2,1l-0.2,0.6l0.6-0.5l2.2-0.9l1.2-0.4l0.7-0.1l0.6,0.1l0.3,0.2
		l0.1,0.6V14l-0.5,1.1l-0.3,0.6l-0.4,0.5l-0.6,2l-0.8,2.1l-1.2,4.3v0.7l-0.2,1.1l-0.6,1.2l-0.2,1.4l-0.3,0.6l-0.3,0.9l-0.1,0.1
		l4.9-3.5l0.8-0.8l0.6-0.3l1.7-0.9l2.5-1.6c0.9-0.6,1.9-1.2,2.8-1.7l0.5-0.5l0.4-0.1l0.1-0.3l2.3-0.9h0.2c0.1,0,0.2-0.1,0.3-0.2
		l0.2-0.1v0.1l1-0.5l0.2-0.2l0.1,0.1c0.1-0.1,0.2-0.1,0.3-0.1l0.1-0.1l0.3-0.1l0.6-0.4l0.4-0.4l0.7-0.2l0.9-0.4l1.5-0.4l1.4-0.7
		c0.1,0,0.3,0,0.4,0.1l0.3-0.3h0.3l0.4,0.2l0.2,0.5l-0.2,0.3l-0.3,0.1l-0.5,0.1l-0.4,0.4l-0.1-0.1l-0.3,0.2l-1.1,0.5l-0.4,0.1
		l-1.1,0.3l-3,1.4l-0.6,0.6l-0.9,0.2l-0.8,0.3l-1.8,0.8l-0.6,0.3l-2,1.5l-0.5,0.5l-1.8,0.8l-1.1,0.8l-1.7,0.9c-1.7,1.1-2.7,2-4.1,3
		l-0.6,0.6l-1.1,0.8l-0.6,0.6l-0.7,0.4h-0.1l-1.8,1.4l-0.6,0.9l-0.1,0.2l-0.3,0.6l-0.1,1.1l0.1,0.3l-0.3,0.1l-0.5,0.6l-0.2,0.2
		l-0.3,0.7l-0.2,0.6l-0.2,0.3h-0.1l-0.8,1.8l-3.8,8.1v0.1l-0.9,1.8l-0.2,0.1l-0.4,0.8v0.3l-1.5,3h-0.1c-0.4,1-0.9,1.8-1.3,2.8
		l-0.7,1.4l-1.4,2.9l-3,5.8v0.3H624l-1.6,3.1l-0.2,0.4l-0.8,2l-3.5,6.8l-1.7,3.3l-4.5,8.4c-1.5,2.8-3,5.4-4.6,8.2l-0.1,0.5l-3.2,5.9
		c-0.9,2.8-2.7,5.3-4.1,7.8c-0.9,2-2.6,3.8-3.6,5.9l-1.5,1.7l-0.4,0.8l-0.8,1.7c-1.3,2.3-3.2,4.2-4.1,6.6l-0.4,0.3l-0.6,1.3
		l-0.8,1.9c-0.1,0-0.1,0.1-0.2,0.1c-1.6,1.7-2.9,3.4-5,4.3l-1.6,0.8l-2.5-0.3L578,140c-1-0.6-1.9-1.4-2.4-2.4c0-0.2-0.1-0.4-0.2-0.6
		c-0.3-0.9-0.5-1.8-0.6-2.7l-0.4-2.1l0.3-0.4C574.8,131.4,574.9,131.1,574.8,130.9z M631.5,50.5v-0.3l1.1-2.1h0.1V48l0.3-0.9
		l1.3-2.7l0.7-1.6l2.1-4.1l0.8-2.4l-0.2,0.1c-1.3,1-2.5,2-3.7,3.1l-0.1,0.4l-0.7,0.5l-0.3,0.5l-1.7,1.1l-3.3,3.1l-0.1,0.2h-0.1
		l-0.3,0.3v0.2l-0.4,0.3l-0.1,0.3l-0.4,0.1l-2.5,2.4l-0.5,0.8l-0.6,0.2l-3.8,4l-0.6,0.8h-0.2c-3.5,3.8-6.8,7.8-10,11.8l-0.2,0.3
		l-0.6,1l-1,0.8c-2.6,3.3-5,6.5-7.3,9.9l-0.2,0.2l-0.5,1l-0.6,0.6l-1.3,1.9v0.4l-0.4,0.7l-0.2,0.2l-1,1.7l-0.5,0.7l-0.4,0.3
		l-1.2,2.5l-2.3,3.8l-2.6,4.1l-1.3,2.5c-0.9,1.4-1.7,2.9-2.5,4.4l-0.2,1.4l-1,1.2l-1,2.1c0,0.1,0,0.2,0,0.3c-0.6,1.6-1.2,3.3-1.6,5
		c-1.3,4.6-2.7,9.1-3.7,13.8v0.1v1.3v0.9l-0.4,0.6l0.1,0.4l-0.1,0.8c0,0.2,0,0.4,0,0.6v0.3c0,1.5,0.3,2.9,0.7,4.3
		c0.1,0.2,0.2,0.3,0.3,0.4h1c1.2-0.6,2.4-1.4,3.4-2.4l1.3-1.4l0.9-1.3l2.2-1.9c2.1-2.3,4.4-4.4,6.2-7.7s4.9-6.1,10.2-17.4v0.2
		c1.3-2.3,2.6-4.6,3.9-6.9l2.8-5.4c0.9-1.9,1.9-3.8,3.1-5.5c1-1.7,2-3.6,2.8-5.4l0.3-0.5l1.3-2.3l2.4-4l0.8-1.7l0.3-0.8l1-1.9l0.8-2
		l0.4-0.7l0.1-0.3l0.5-0.5l0.1-0.1l0.2-0.7h0.2l0.1-0.1v-0.2l0.9-1.8l0.2-0.3c0.7-1.6,1.5-3.2,2.3-4.8l0.3-0.8l0.5-0.9l0.2-0.8
		l0.7-1.2l0.6-0.9L631.5,50.5z M625.8,27.9L625.8,27.9l1.4-1.4l0.3-0.5l0.3-0.1h0.1v-0.3l0.4-0.4l0.1-0.3l0.5-0.1l2.4-2.3v-0.3h-0.1
		l0.1-0.1h0.2l0.2-0.1l0.2-0.2l0.2-0.4l0.9-0.6l0.9-1.2l0.5-0.5l0.4-0.1l0.7-0.5l0.8-0.7l-0.1-0.1v-0.3l0.3-0.1l0.1,0.1h0.2
		l-0.1,0.3l0.1-0.2l0.4-0.1l0.2-0.3h0.1l0.3-0.1l1.1-0.8v0.1l0.1-0.1l-0.5-0.5L638,15l0.4-1l0.2-0.4l0.9-1.2l0.6-1.1l0.3-0.3v-0.5
		l0.5-0.8V9l-0.3-0.4l-0.3-0.1c-1.7,0.5-3.3,1.3-4.8,2.4l-0.6,0.5l-0.6,0.6l-1,0.9l-0.6,0.7l-0.6,0.4l-1.1,0.6l-1.1,0.8
		c-0.4,0.3-0.7,0.6-1,0.9c-1.3,1.1-2.6,2.4-4,3.8l-0.1,0.3l-0.6,0.7l-0.8,0.7l-0.5,0.6l-1.4,1.4l-1.5,1.7l-1.6,2l-1.4,1.9v0.2
		l-0.1,0.3l-0.3,0.8l-0.3,0.3l-1.4,2.5l-0.3,1.5l-0.2,0.2l-0.2,0.5l-0.1,0.4v0.3l0.2,0.3l0.2,0.1c0.4-0.1,0.8-0.2,1.1-0.4
		c0.6-0.2,1.1-0.5,1.6-0.8l0.2-0.3l0.7-0.2l0.2-0.2l1-0.9l0.8-0.5c0.6-0.6,1.3-1.1,1.8-1.6l0.3-0.3l0.1-0.3l0.4-0.2l0.7-0.6l0.2-0.3
		L625.8,27.9z"/>
	<path class="st0" d="M683.2,24.7V26l0.3,0.1l0.1,0.6l-0.2,0.9l-0.6,0.7L682,29l-0.6,0.8l-0.3,0.9l-0.6,0.7l-0.7,1l-1,2l-1,1.4
		l-2,3.8l-0.3,0.3l-0.2,0.4l-0.7,1h-0.1l-0.7,0.9l-0.3,0.4l-0.1-0.1c-0.2,0.2-0.4,0.5-0.5,0.7v0.4l-0.4,0.4l-0.3,0.7l-0.3,0.3
		l-1,1.2l-3.4,4.5l-0.5,0.6l-0.4,0.3l-1.5,1.8c-0.5,0.5-1,1.1-1.4,1.6c-0.1,0.1-0.3,0.2-0.4,0.3l-0.1,0.1l-0.6-0.2l0.1-0.3l0.1-0.2
		l0.2-0.4l1.8-2.1v-0.1l0.2-0.1l0.1-0.1l0.8-1.1l0.3-0.6l0.3-0.1l0.1-0.1v-0.2l0.6-0.8l0.2-0.3l0.1-0.3L668,48l0.3-0.6l0.9-1.1
		l0.2-0.4l0.3-0.6l0.3-0.6l0.5-0.6l0.2-0.4h0.2l0.2-0.3l2.6-4.2v-0.3l0.1,0.1l0.2-0.4l0.2-0.9l1-1.7l-0.1-0.5l0.4-0.3l1.3-2.6
		l0.5-1.5l-0.1-0.6l0.6-0.8v-0.8l1.5-3v-0.8l0.8-1.5l0.1-0.2l0.6-3.2l0.5-2.1l0.2-0.3c-0.1,0-0.2,0-0.3,0l1.1-1l1.4,0.1
		c0.2,0,0.2,0.1,0.3,0.2l0.5,0.4h0.3l0.5,1.9l-0.3,1.7l-0.2,0.2l0.1,0.5l-0.4,1l-0.8,1.3L683.2,24.7z"/>
	<path class="st0" d="M120.4,177.2c0.6,0.2,1.3,0.4,1.8,0.8l0.5,0.1l0.8,0.9l0.2,2.2l0.2,0.5l0.1,0.6l-0.2,0.4v0.3
		c-0.1,1-0.2,2-0.4,2.9l0.1,0.8l-0.4,1.4v1.5l-0.1,0.7l-0.2,0.9l-0.4,1l-0.3,1.4l-0.9,2.2l-0.1,0.1l-0.3,0.7v1.2l0.2,0.1l-0.3,0.1
		l-0.6,0.4v0.4l-0.3,1.5l-0.2,0.3l-1.6,6.3l-0.4,1.6v0.2l-0.2,0.2L117,210c-0.2,0.9-0.5,1.8-0.7,2.7l-0.2,0.5l-1.2,4l-0.1,0.5v0.9
		l-0.1,0.4v0.6l-0.1,0.4l0.3,0.5v0.3l-0.6,0.4l-0.3,0.6l-1,1.5l-0.1,0.1l-1.4,4.5v0.8l-0.8,1.3l-0.1,0.4v1.6l-0.3,0.8L110,234
		l-0.3,0.8l0.4,0.1h0.6l0.2,0.1l0.9-0.2l0.5-0.3l0.7-0.2l0.9-0.1l0.8,0.1l0.8-0.1l0.1-0.1l0.4-0.1l0.2,0.1v-0.1l0.1,0.1v-0.1
		l0.2-0.1h0.6v0.1l0.9-0.2v-0.1l0.2,0.1l0.5-0.1c0.5-0.1,1.1-0.1,1.6-0.2c0.7,0,1.3,0,2-0.1l0.3-0.1l0.5-0.2l0.6-0.2l0.8,0.1
		l0.3-0.1l0.7-0.1l0.3-0.1h1l0.4-0.1l0.7-0.2h0.5h0.3l0.4-0.1l0.3,0.1c0.4-0.1,0.7-0.1,1.1-0.1h0.7l0.4-0.1l0.3-0.1l0.5-0.1l0.9,0.1
		h0.2c0.2,0,0.4,0,0.6,0h0.1l0.8-0.1l0.6-0.1l0.2,0.1l0.1,0.1l1-0.2c0.7,0,1.4-0.1,2.1-0.2c0,0.1,0.1,0.1,0.2,0.1h0.3l0.4,0.2
		l0.1,0.4l-0.5,0.1l-0.5-0.1l-0.4,0.2h-1.1h-0.2l-1.9,0.2l-0.5,0.1c-1.9,0.1-3.7,0.4-5.4,0.6l-0.2,0.1l-1,0.1
		c-0.9,0.1-1.7,0.2-2.5,0.4l-1.6,0.3l-0.1,0.1l-3.1,0.6h-0.7l-0.6,0.1l-0.1,0.1l-0.6,0.2l-0.7,0.2l-0.7-0.1l-1.5,0.4l-0.6,0.1
		l-1.2,0.3h-0.3l-4.9,1l-0.6,1l-1.3,3.9l-1.4,4.4c-0.2,1.4-0.5,2.8-0.9,4.1c-0.2,0.6-0.4,1.1-0.8,1.6l-2.1,7
		c-0.2,0.6-0.3,1.2-0.4,1.7l-0.6,1.4c-0.4,1.3-0.8,2.5-1.1,3.8v0.2l-0.3,0.7l-0.4,1.5l-0.5,1.9l-0.2,1.6l-0.2,0.2l-0.3,1l-0.9,3.5
		c-0.1,0.4-0.2,0.9-0.2,1.3l0.1,0.4l-0.2,0.3l-0.4,2.8l-0.2,0.1l-0.3,1.4l-0.2,1.2l0.1,0.4l-0.3,1.5l-0.3,1l-0.2,1.3l-0.2,0.4v0.5
		l-0.3,2.3c0.2,0.7-0.3,1.7-0.3,2.5c-0.2,1-0.3,2-0.2,3.1l-0.3,0.6c0,2.3-0.2,4.5-0.6,6.8c-0.1,1.2,0.3,2.4,0.3,3.6
		c-0.3,0.6-0.5,1.2-0.7,1.9c-0.6,0.5-0.9,1.5-1.8,1c-0.8-1.8,0.1-3.8,0.3-5.7c0.2-1.6,1-3.2,0.7-4.9l0.4-2.4c0.3-3,0.7-5.8,1.2-8.7
		l0.2-2.1l0.7-3.2l0.5-3l0.3-1.1l1.2-4.6l0.4-1.8l0.5-2l0.3-0.7c0-0.2,0-0.3,0.1-0.5l0.8-3.2l0.2-0.7l-0.1-0.5l0.4-1l0.2-0.3
		c0-0.1,0-0.3,0.1-0.4c0-0.4,0-0.9,0.2-1.3l0.3-0.1c0.5-1.8,1.1-3.6,1.4-5.4c0.8-2.1,1.4-4.3,2-6.4c0.3-1.3,0.7-2.6,1.2-3.8l0.5-2.3
		l0.3-1.1l0.5-1.6l0.3-1.1l0.8-1.2c0.2-0.8,0.5-1.6,0.8-2.4c-1.4,0.6-2.9,1.2-4.3,1.6c-0.9-0.1-1.8,0-2.7,0.2l-7.5,1.9
		c-0.6,0.3-1.2,0.4-1.9,0.4l-0.1,0.1c-1.1,0.6-2.4,0.9-3.6,0.9h-0.2c-0.4,0.2-0.9,0.3-1.3,0.4l-1.5,0.4l-6.5,1.9l-0.1,0.2l-1.5,0.5
		l-2,0.6l-1.4,0.5l-1.3,0.2l-0.9,0.1c-5.3,1.7-10.5,3.3-15.7,5.1l0.1,0.1l-2.2,0.8l-1.3,0.4l-2,0.4l-2.5,0.8l-2.4,3.7
		c-1.5,3.1-3.3,6-5.3,8.8l-0.8,1.4c0.3,1.1-0.7,2.1-0.8,3.1c-0.6,0.3-1,0.7-1.3,1.3l-2.8,4.9c-0.3,0.6-0.8,1-0.9,1.7
		c-1.1,1.5-2,3.1-2.9,4.8l-1,1.4v1l-0.5,1.1l-0.7,1l-0.6,0.4l-0.5,0.6l-0.2,1.1l-0.8,0.6l-0.5,1.4l0.2,0.7l-0.2,0.7l-0.5,0.6
		l-0.3,0.7c0.1,0.2,0.2,0.4,0.1,0.9c-0.7,3.1-1.6,4.2-3.3,6.7l-1.8,2.8l-0.1,0.2h-0.2l-0.3,0.2l-0.6,0.9l-0.5,0.5h-0.5l-0.3-0.2
		l-0.3-0.4l-0.2-0.4h0.1v-0.2v-0.5l-0.1-0.2v-0.4v-0.6l0.3-0.7v-0.2l0.2-0.2v-0.3l-0.2-0.1l0.1-0.1l0.1,0.1l0.1-0.2v-0.4l-0.1-0.9
		l0.2-1l-0.1-0.4l0.2-0.3l0.1-0.5l-0.2-0.1v-0.1l0.2,0l0.3-0.7h0.2l0.3-0.1l0.2-0.4l0.3-0.1l0.2-0.2l0.6-1l0.4-1.3l0.2-0.2V296
		l-0.1-0.1l0.1-0.1h0.1L20,295l0.3-0.9l0.2-0.2l0.6-0.8l0.9-0.3l1.6-3.3l0.7-0.9l1.8-3.5l0.4-0.6l0.3-0.8v-0.6l0.6-1l0.8-0.9l1-1.2
		l0.3-1.1l0.8-0.6l0.7-1.1l0.2-0.2l0.7-1.3l0.7-1l0.7-1.1c0.4-0.7,0.8-1.4,1.2-2.1l0.8-1.4l0.1-0.5l0.3-0.2l0.3-0.6l0.8-0.9l0.8-1.6
		l0.3-0.4l1.8-3.1l0.5-1.1l0.5-0.4l0.9-1.5l0.4-0.9l0.6-0.5l0.9-1.8l0.1-0.1l-5,1.7l-0.7,0.5l-1.8,0.7l-2,0.6l-3.4,1.3l-2.3,1.4
		c-1.5,0.9-3.3,1.1-4.8,2c-3.2,0.7-5.9,2.4-8.8,3.9l-0.6-0.1c-1,1.7-2.6,3-4.6,3.5H9.4c-0.2,0.8-0.4,1.6-0.4,2.4
		c-0.8,1.3-2.3,1.9-3.7,1.5l-0.7-0.5l0.2-0.6l-0.1-0.4c-0.8,0.8-2,1.2-3.1,0.9c0,0.3-0.5,0.4-0.8,0.1l-0.6-1.1
		c0-0.3-0.1-0.4,0.1-0.6c0.5-1,1.3-1.8,2.2-2.4l1.8-1l0.9-0.9l0.5,0.3c2.9-1.7,6-3.2,9.1-4.6l0.1-0.2l1.2-0.8l0.5-0.3l1.3-0.1l1-0.4
		l0.2-0.2l0.4-0.1c2-0.8,4.1-1.5,6.2-2.3l0.7-0.5l1.6-0.8l1-0.6l0.5-0.2l2.4-0.4l0.8,0c4.5-1.5,8.8-2.9,12-3.9l0.3-0.6l0.4-0.3
		l0.4-0.9l0.6-1.2l1.5-1.9l1.9-3l1.8-2.1l0.3-0.5l2.1-2.2l0.9-1.4v-0.1l1-2.2l1.7-2.3l0.4-0.5l2-1.8l0.5-0.6l1-0.8l2-2.5l0.1-0.3
		l0.6-1l1-0.7l0.1-0.1l0.7-1.3l0.4-0.4l0.7-0.7l0.6-0.6l2.5-3.1l1.2-1.6l0.7-0.8c0.7-0.8,1.4-1.6,2.1-2.5l0.1-0.2l0.4-0.4l0.2-0.6
		l0.3-0.7l0.2-0.2l0.8-0.5l0.2-0.4l0.8-0.6l2-2.4l0.2-0.2l0.3-0.3l0.3-0.5l0.3-0.2l0.3-0.4l0.2-0.1l0.2-0.2c0.7-0.8,1.5-1.6,2.2-2.4
		l0.2-0.3l0.9-0.8l0.7-1.1l1.1-1l1.3-1.4l0.3-0.4l0.5-0.8l0.2-0.2l0.6-0.8l0.1-0.6l0.2-0.2l0.7-0.1l0.6-0.3h0.1l1.9-2.1l0.4-0.6
		l0.4-0.4l0.7-0.7l0.9-0.8l0.5-0.4l0.3-0.6l1.2-0.9h0.1l1.8-1.7l0.1-0.3L99,189l0.2,0.1l0.1-0.1h0.1c0.5-0.5,1-1,1.6-1.5l0.4-0.5
		l0.5-0.5l0.6-0.6l0.9-0.5l0.6-0.6l0.5-0.4l0.7-0.4c0.8-0.7,1.6-1.3,2.4-1.9l0.7-0.5l1.4-1l0.5-0.4l0.3-0.1l0.1,0.1l1.2-0.8l0.6-0.6
		l0.7-0.5l0.6-0.2l0.2-0.1l0.6-0.1l0.3-0.3l1.2-0.2l0.4-0.3l0.6,0.3h0.2l0.5-0.3h0.3l0.1,0.2c0.7-0.1,1.4-0.2,2.1-0.1h0.3
		L120.4,177.2z M78,215.1c-0.4,0.5-0.8,1-1.3,1.4l-0.4,0.1c-0.3,0.9-1.2,1.4-1.4,2.4l-1.3,1.3l-0.4,0.4l-0.5,0.6l-0.2,0.1
		c-1.9,2.2-3.7,4.4-5.8,6.5c-0.5,0.9-1.1,1.8-1.8,2.6c-0.1,0.4-0.2,0.9-0.5,1.2l-0.6,0.1c-0.9,2.1-2.8,3.5-3.7,5.6l-2,2.4l-0.3,0.1
		c-0.3,0.9-1.1,1.5-1.2,2.4c-1.6,1.6-3,3.4-4.2,5.3c-1.4,1.7-2.9,3.3-3.8,5.4l3.9-1.3l0.2-0.1l1.7-0.9l2.2-0.5l2.1-1l1-0.3l1.5-0.5
		l1.8-0.4h0.5c1.4-0.4,2.7-0.9,4.1-1.4l0.3-0.2l1-0.5l1.3-0.3l2.1-0.9l0.8-0.2l1.1-0.1l0.6-0.2l0.7-0.2h0.4l8.7-2.6l1.3-0.4l1.3-0.7
		l0.6-0.3l0.9-0.3l1.1-0.2l0.6-0.2l0.7-0.2l3.1-0.6l1.1-0.6v-0.3l0.3,0.1l0.6,0.2l1.7-0.7h0.5l0.3,0.1c0.8-0.2,1.7-0.4,2.5-0.6
		l0.5-0.3l0.4-0.1l0.4,0.1l2.1-0.6l0.3-0.2l1-0.2l0.9-0.3h0.7l0.1-0.5l0.3-0.9l0.2-0.4l0.5-1.3l0.2-1.2l0.3-0.3l-0.1-0.4l0.2-0.4
		l0.4-1.8l0.4-1.1l0.1-0.6V226l0.3-1v-0.8l0.2-0.2l0.2,0.1v-0.2l0.5-0.5l-0.1-0.4l0.4-1.1l1.4-4.7l1-2.9l0.1-0.8l1-2.8l-0.1-0.5
		l0.2-0.3l-0.1-0.3l0.2-0.6l0.3-0.7l0.7-1.5l0.2-0.2l1.2-4.5V202l0.2-0.2l0.6-2.5c0.4-1.2,0.6-2.4,0.7-3.6l0.6-2.6
		c0.6-1,0.2-2.5,0.8-3.6c-0.3-0.6-0.1-1.3-0.4-1.9c0.2-1,0.5-1.9,0.9-2.8l-0.4-0.6l-0.5-0.5l-0.2-0.4l0.1-0.6l-0.1-0.7l0.1-0.7
		l-0.4-0.7l-0.2-0.9l-0.3-0.5c-0.4-0.3-0.9-0.4-1.4-0.3l-2,1.1l-2.6,1.8l-0.7,0.3l-1,0.4l-1.5,0.6l-1,0.4l-0.6,0.4h-0.1l-2.1,1.7
		l-0.1,0.1l-0.5,0.4l-2,1.7l-0.3,0.6l-0.7,0.5l-0.7,0.4h-0.2l-2,1.8l-0.4,0.4l-0.6,0.6l-0.5,0.4l-4.3,4.2l-0.3,0.7l-0.7,0.4
		l-1.6,1.8l-0.1,0.4l-0.3,0.1l-1,0.9l-0.8,0.9l-2.3,2.4l-0.4,0.8l-0.5,0.4l-0.4,0.4l-0.2,0.2l-0.1,0.3l-0.5,0.5l-0.6,0.8
		c-0.1,0.6-0.5,1.2-1.2,1.1l-2.2,3.2l-1,0.9l-0.6,0.9l-0.4,0.7L78,215.1L78,215.1z"/>
	<path class="st0" d="M172.3,234.1l-1.8,2.4l-0.1,0.1l-1,1.6l-0.9,1.4l-0.6,0.5l-1.8,2.5l-0.6,0.9l-0.3,1l-0.6,0.6l-1,1.8v0.3
		l-0.6,0.6c0,0.1,0,0.1-0.1,0.2l-0.2,0.6l-0.3,0.5l-0.3,0.1c-0.1,0.1-0.1,0.1-0.1,0.2l-0.1,0.2l-0.3,0.4l-0.1,0.3h-0.1l-0.1,0.3v0.3
		l-0.1,0.3v0.3l0.1,0.1h-0.2l0.1,0.8v0.9l-0.1,0.3l-0.4,1l-0.7,0.7h-0.6l-0.2-0.1l-0.1,0.2h-1.1l-0.6-0.5l-0.2-0.4v-0.5v-0.3v-0.1
		c0-0.1,0.1-0.2,0-0.3l-0.2-0.8V252l-0.1-0.4v-1l0.3-1l0.3-1.5l0.1-0.2l-0.1-0.3l1.1-2.9l0.3-0.7l0.2-0.4l0.3-0.3l0.1-0.2l0.7-1.9
		v-0.6l0.1-1.3l0.8-1l0.2-0.1l2.4-6.4l0.2-1.2l-0.1-0.6l0.2-0.3l0.3-0.5l0.2-0.5h0.3l-0.1-0.4l0.8-1.3l0.3-0.3l0.5-1l2.1-4.9
		l0.1-0.1l0.5-1c1-2.2,1.6-4,3-6.9l0.3-0.5l1.4-3.3l0.4-0.9l0.4-1.2l0.9-1.5l0.1-0.9l0.7-1.1l0.5-1.1l1.6-3.2l0.2-1l0.9-2.2l0.2-1.1
		l1.3-2.7l0.4-1.6l1.8-4.1l1.6-4.3l0.3-1.2l0.6-1.3l1.4-3.6l0.9-2.3l0.4-1.9l0.1-1.2l-0.1-0.4l0.1-0.7l-0.1-0.4l0.1-1.7l-0.3-1.5
		l0.1-0.7l0.4-2l1.3-1.5l1.1-0.2l0.1,0.1l0.2-0.5v-0.1c0.1-0.3,0.3-0.4,0.6-0.4c0.3,0.1,0.4,0.3,0.4,0.6v0.9l0.1,0.6l0.3-0.2
		l0.1,0.4h-0.2l-0.1,0.4l-0.1,0.5l-0.1,0.9l-0.5,1.9l-0.2,2.7l-0.4,1.3l-0.3,0.3l-0.6,1.3l-0.3,1.1l-0.1,0.3l-0.2,0.7l-0.2,1.1
		c-0.1,0.2-0.1,0.3-0.1,0.5v0.2h0.1l0.1,0.2h-0.2l-0.1,0.1v0.3v0.6l-0.4,1.1l-0.1,1.4l-0.3,0.7l-0.1,0.2l-0.4,0.6l-0.1,0.6l-0.3,0.5
		l0.2-0.1l0.1,0.4l-0.2,0.3h-0.2v-0.1v-0.3l-0.1,0.3l-0.3,0.4v0.4l-0.3,0.1l-0.6,1.5l-0.1,0.4l-0.4,1l-0.1,0.7l-0.8,1.5v0.4
		l-1.1,2.3l-1.2,2.9l-0.7,1.5l-0.6,1.6l-0.1,0.2c-0.4,0.8-0.8,1.6-1.1,2.5v0.3L180,201l-0.2,0.3l-1.2,2.6l-0.1,0.5l-0.1,0.1
		l-0.2,0.1c-0.1,0.1-0.1,0.2-0.1,0.3l-0.6,1.6l-0.4,0.6l-0.6,1.3l-0.1,0.4l-0.1,0.6l-0.1,0.3l-0.2,0.3l-0.2,0.7v0.3l-0.2,0.6
		l-0.3,0.1l-0.3,1l-1.2,2.8l-1.7,2.4l-3,6.8l-0.3,1l-0.1,0.7v0.9l-0.2,0.8l-0.1,0.6l-2.1,2.8l-0.4,0.9l-1.7,5.5l-0.7,1.8l-0.4,1.6
		l-0.3,0.8l-0.2,0.9l-0.6,1.2l0.1,0.4l-0.1,0.5l-0.1,1.1l0.8-1.7l0.1-0.3l0.8-1.3l0.7-0.9l0.2-0.6l0.2-0.4l0.6-0.8l0.3-0.6l1.4-1.4
		l1.2-1.5l1.5-1.9l0.3-0.6l0.1-0.9l0.3-0.4h0.8l0.3-0.3l1.5-2.3l0.6-0.6l0.9-0.7l1.1-1.1l0.8-0.8l0.4-0.5l0.9-0.8l0.1-0.3l0.5-0.4
		l0.7-0.6h0.1l2.1-1.8v-0.1l0.8-0.7l0.6-0.6l0.6-0.8l0.7-0.7l0.3-0.2v-0.6l0.3-0.1h0.6l0.7-0.3l1.6-0.6h0.2l0.4-0.3v-0.2l2.6-1.7
		l0.7-0.3l0.5-0.1c0.9-0.5,1.8-0.8,2.8-1l0.3-0.2l2.1-0.4l0.2,0.1c1.2,0.1,2.3,0.4,3.4,0.8c0.3,0.1,0.5,0.4,0.5,0.7l0.1,1.5l0.2,0.5
		l-0.3,1.4l-0.2,1.5l-0.4,1.1l-0.5,0.6l-0.8,1.6l-0.1,0.2l-0.3,0.6l-0.5,0.6l-0.1,0.2c-1.2,1.7-2.5,3.4-3.8,5.1l-0.3,0.4l-0.2,0.2
		l-2.8,3l-1.1,1.3l-0.4,0.2l-1,1.1L188,237l-0.8,0.9l-0.9,0.5l-0.8,0.8l-0.5,0.4l-0.7,0.5l-0.9,0.7l-0.2,0.2l-0.3,0.1
		c-1.5,1.3-3.1,2.4-4.9,3.4c0,0.1-0.1,0.1-0.2,0.1h-0.1l-0.4,0.4l-0.4,0.1l-0.4,0.4l-0.2,0.2L176,246l-0.7,0.2l-0.8,0.2l-0.9,0.4
		l-0.5,0.4l-0.8,0.5l-1,0.4l-1,0.5l-0.8,0.4l-0.1-0.2l-0.7,0.1h-0.6l-0.7-0.1h-0.4l-0.2-0.1h0.1l-0.7-0.1h-0.1l-0.3-0.2l-0.3-0.3
		l-0.3-0.4l0.1-0.4l0.6-0.4l1-0.5l0.4-0.3l0.4-0.1h0.3l0.4,0.3l0.4,0.1l0.7,0.2l0.7,0.1l0.4-0.1l0.3-0.1h0.2c0.3,0,0.6-0.1,0.9-0.3
		l0.2-0.1l0.8-0.1c0.1,0,0.2-0.1,0.3-0.1l1-0.5l1.7-0.7l0.4-0.1h0.1l0.3-0.1c0.3-0.1,0.6-0.3,0.9-0.5l0.2-0.3l0.9-0.5l0.9-0.7
		l0.5-0.3l1.2-0.7l0.8-0.9l0.2-0.4l0.1-0.2l0.7-0.5l0.4-0.7l0.3-0.4l0.4-0.1l0.1-0.3l0.4-0.4l0.1-0.2h0.5l0.3-0.2l1.7-2l0.6-0.5
		l1-0.6l1.1-1l0.1-0.1c1-1.2,1.9-2.4,2.7-3.5c0.3-0.4,1.4-1.7,2.5-3.4l0.2-0.6l0.4-0.6l0.3-0.5l0.1-0.2l0.7-0.7
		c0.5-0.9,1-1.7,1.5-2.7v-0.1l0.2-0.5l0.1-0.3l-0.1-0.3l0.2-0.6l0.1-0.5V218l-0.3-0.6l-0.4-0.2l-0.2-0.1v-0.2l-0.1-0.2v-0.6
		l-1.3-0.7l-0.5-0.1l-0.3,0.2l-0.3-0.1l-0.6,0.1c-1.3,0.5-2.6,1-3.8,1.7l-0.4,0.3l-2.2,1.2l-0.6,0.5l-0.3,0.1l-0.3,0.1l-1.8,1.2
		l-0.3,0.3l-0.3,0.2c-0.1,0.1-0.2,0.1-0.3,0.1l-1.4,1.1l-2.9,2.5l-1.4,1.4l-0.7,0.9l-0.4,0.6l-0.8,0.5l-0.9,1l-1.4,1.3l-0.1,0.1
		c-0.5,0.5-0.9,1-1.3,1.5l-0.7,1L172.3,234.1z M175.6,210.8l0.2-0.7L175.6,210.8z"/>
	<path class="st0" d="M210.1,231.9l-0.1,0.4l0.6-0.8l1.1-1.1l0.3-0.3l0.2-0.1h0.2v-0.1l0.7-0.4l-0.4-0.3l0.5-0.1l1.4-1.8h0.3
		l1.2-1.7l1.4-1.3l1.3-1.4l0.1-0.2h0.1l1.5-1.6l0.1-0.1l2.2-2.2v0.1l1.4-1.4l0.4-0.5l0.3-0.2l0.7-0.7l0.1-0.2h0.1l1.6-1.4l0.6-0.9
		l0.5-0.4l1.3-0.8l0.8-1.1l0.9-0.7l1.8-1l0.8-0.5c0.9-0.7,1.8-1.4,2.7-2l0.5-0.5l1.5-0.9l1.5-0.8l0.2-0.2l0.7-0.6l0.9-0.5l0.6-0.4
		l1.1-0.3c1.2-0.7,2.6-1.1,4-1.4l0.5-0.3l0.4,0.3c0.4,0.1,0.8,0.3,1.2,0.5c0.1,0.1,0.2,0.2,0.2,0.3l0.8,0.6l0.2,2.4l-0.7,2.3l-1,0.6
		l-1,0.2l-0.6-0.5l-0.2-0.9l-0.4,0.4l-0.1-0.4l0.2-0.1v-0.5l-0.2-0.6l-0.4-1.1l-0.4-0.4l-1.3,0.4l-1.2,0.8l-0.4,0.2h-0.7l-0.9,0.6
		l-0.5,0.2l-3.5,1.4c-1.6,1-2.9,2-3.4,2.4l-0.5,0.4l-0.4,0.5l-3.3,2.5l-1.2,1.1l-0.4,0.6l-1.5,1.2l-0.4,0.4l-0.7,0.8l-1.2,1.1
		l-0.4,0.7l-2.3,2.2l-3.3,3.9l-0.4,0.9l-0.6,0.6l-0.9,1.5l-0.9,1.2l-0.3,0.2l-0.6,0.6l-0.5,0.7l-0.1,0.2l-0.6,0.8l-0.6,1l-0.4,0.5
		l-0.3,0.3l-0.7,1.1l-0.2,0.7l-0.3,0.3l-0.3,0.5l-0.8,1l-1.3,1.8l-0.3,0.8l-0.3,0.5l-0.3,0.9l-0.1,0.6l-0.1,0.2l-0.1,0.5l-0.4,0.6
		l-1.2,1.4l-0.8,0.8h-0.8l-0.6-0.6v-0.1c-0.2-0.2-0.4-0.5-0.3-0.9l-0.1-0.4l0.1-0.2l0.1-1.1l-0.1,0.2l-0.2-0.4l0.2-0.7l0.2-1.1
		l0.5-1l0.1-0.2v-0.2l0.3-0.3l0.2-0.5v-0.2l0.7-0.8h0.2l0.2-0.2l0.8-1.7l0.5-1l0.3-0.1l0.3-1l0.3-1.4l0.5-0.6l0.1-0.6l0.8-1.4
		l0.2-0.2l0.9-2l-0.1-0.4l1.2-2.2l0.6-1.7l0.3-0.6l0.3-0.9v-0.3l0.1-0.2l0.5-1l-0.1-0.3l0.4-1l0.5-0.2l0.3,0.1l0.4-0.7l0.2-0.7v-0.5
		l-0.1-0.3l-0.4-0.1l0.2-0.3l-0.1,0.2l0.2-0.4l-0.1-0.1l-0.3,0.5c-0.4,0.5-0.8,0.1-0.9-0.3l0.1-0.2v-0.2V215l0.2-0.5l0.1-0.2
		l-0.2-0.2l-0.1,0.1l-0.5-0.1v-0.3l0.1-0.2l0.4-0.2h-0.2l0.2-0.1h-0.2l-0.1-0.4l0.3-0.6l0.5,0.2l0.2-0.5l-0.1-0.4v-0.3l-0.2-0.1
		l0.4-0.2l-0.1-0.4l0.2-0.1h0.2l0.3-0.4l0.4-0.1h0.6h0.5l0.3-0.2v-0.2l0.3-0.3h0.4l0.3-0.1l0.2,0.1l-0.1,0.1l-0.4,0.3
		c0.6,0.1,1.1,0.4,1.4,1l0.1,0.1v0.3c0.2,1.1-0.5,2.5-1.3,3.8l0.1,0.2l-0.8,1.4l-0.5,0.2l-0.6,1l-0.3,0.5l-0.1,0.7h-0.1
		c-0.3,0.7-0.7,1.5-1.1,2.1c0,0.1-0.1,0-0.1,0L214,222l-0.1,0.6l-0.2,0.7l-0.6,1.5l-0.4,0.7l-0.1,0.4l-0.4,1l-0.8,1.9l-0.4,1.4
		l-0.4,1l-0.4,0.5L210.1,231.9z"/>
	<path class="st0" d="M279.5,219.8l0-0.2l0.1-0.3l1.3-2.3l0.2-0.8l0.2-0.3l0-0.2l0.2-0.2l0.9-1.4l0.3-0.5v-0.2l0.1,0.1l0.1-0.9
		l-0.1-0.1h-0.5l-0.8,0.1l-1,0.5l-2.4,1.4l-0.6,0.3l-0.4,0.2l-2.3,2.1h-0.1l-0.6,0.6l-0.6,0.4l-0.6,0.5l-1.9,1.4l-1.9,1.5l-0.7,0.5
		l-1.2,1l-0.4,0.3l-1,0.8l-0.5,0.3l-1.4,1.3l-0.5,0.5l-0.5,0.5l-0.8,0.4l-0.8,0.5l-2,1.5l-0.1,0.2l-0.8,0.7h-0.2v0.1l-0.8,0.1
		l-1,0.6l-0.7,0.1c-0.3,0.2-0.5,0.4-0.8,0.5l-0.3,0.3l-1.7,1l-0.4,0.1l-1.3,0.8l-0.2,0.1l-0.3,0.1h-0.3h-0.6h-0.1
		c-1.4,0.4-2.6,0.4-3.1-0.6c-0.5-1.3-0.5-2.7-0.1-4.1l0.2-1.1l0.3-0.1v-0.4l0.3-0.6l0.1-0.4l0.2-0.1v0.1l0.1-0.5l0.5-1l0.9-0.9
		l0.1-0.2l0.5-1.3l0.3-0.5l0.6-0.7l0.9-1.1l3.4-4.3v-0.1h0.1l1-1.2l0.2-0.3l1.3-1.5l0.6-0.6l2-2.1l0.1-0.1l0.9-1.4l0.4-0.5l0.3-0.7
		l0.2-0.1h0.6l0.2-0.2l0.6-0.3l0.3-0.1l0.4-0.2l0.3-0.3v-0.2l0.7-0.4l2.6-1.9l0.5-0.5l0.3-0.3l0.7-0.3l0.2,0.1l0.2-0.1l0.8-0.4h0.3
		l0.4-0.4l0.6-0.2l0.5-0.3l0.6-0.3l0.4-0.1l0.9,0.1l0.5-0.2l0.5-0.1h0.4h0.2v0.1l0.4-0.1l0.3,0.1l0.1,0.2h0.4l0.3,0.4l0.1,0.8
		l-0.2,0.2c0,0.3-0.3,0.5-0.8,1.3c-0.2,0.2-0.4,0.2-0.6,0.1l-0.9,0.4l-0.6,0.2l-1.6,0.3l-1.5,0.1v0.1l-0.4,0.1v-0.1h-0.2l-0.6,0.2
		l-0.6,0.1l-1.2,0.8L267,207l-1.9,1.3l-1.3,0.9c-0.5,0.4-0.9,0.8-1.4,1.3c-0.1,0.1-0.1,0.1-0.1,0l-0.7,0.8l-0.1,0.1l-0.2,0.1
		l-3.5,3.7l-0.3,0.4l-0.6,1l-0.5,0.7l-0.6,0.5l-0.7,0.6l-0.2,0.3l-0.6,1l-0.1,0.2l-0.1,0.3l-0.8,1.5l-0.2,0.2l-0.1,0.2l-0.2,0.2
		l-0.1,0.4l-0.2,0.4H252l-0.1,0.5l-0.3,0.5l-0.1,0.4l-0.4,0.5l-0.4,0.6l-0.7,1.2v0.2l0.2,0.5l-0.1,0.2v0.2l-0.1,0.2l-0.3,0.3
		l-0.2,0.4l-0.4,0.6l-0.3,0.6v0.2l-0.1,0.2l0.1,0.5l0.2,0.2l0.3,0.4l0.3,0.1l1.8-1.1l0.8-0.3l1.2-0.7h0.1l0.4-0.2
		c1.1-0.7,2.1-1.4,3.2-2.1l0.4-0.4l0.6-0.5l0.4-0.4l0.7-0.1c0.9-0.6,1.9-1.3,2.8-2l0.4-0.4l0.6-0.4v-0.1l0.2-0.1l0.2-0.3l0.3-0.2
		l1.2-0.9l0.6-0.5l0.6-0.5l2.2-1.7l0.5-0.6l2.3-1.6l0.5-0.3l1.5-1.1l0.7-0.8l1.5-1.1l0.4-0.4l0.6-0.6l0.4-0.4l1-0.9l1-0.9l2.7-1.1
		l1.1-0.2h0.8l0.7,0.3l0.4,0.2c0.3,0,0.6,0.2,0.8,0.5v0.1l0.2,0.1l0.1,0.4l0,0.3h0.2l0,0.2l-0.1-0.1l-0.1,0.2l-0.1,0.3l-0.1,0.4
		l-0.5,0.5c-0.1,0.2-0.2,0.4-0.4,0.6l-0.5,1.1l-0.5,0.6l-0.3,0.1l-0.9,1.4l-0.1,0.2v0.1l-0.2,0.1l-0.4,0.8l-0.1,0.3l-0.1,0.4
		l-0.5,1.1c-0.1,0.2-0.2,0.4-0.2,0.7l-0.1,0.8l-0.1,0.1c-0.1,0.3-0.1,0.6,0,0.9c0,0.3-0.1,0.1,0.3,0.1c0.1,0,0.2,0.1,0.3,0l0.4-0.2
		l0.6-0.1l0.2-0.1l0.6-0.1l0.4-0.2l0.2,0.1c0.6-0.2,1.1-0.5,1.9-0.8l0.7-0.3l0.6-0.4l0.5-0.1l3-1.4l0.2-0.2l0.9-0.4v0.1l1.1-0.6
		l0.7-0.5l0.3-0.1l0.3-0.3l2.8-1.3v-0.2l0.3,0.1l0.8-0.4l0.2-0.3l4.1-2l0.5-0.1l2.1-1.1c0.1,0,0.2,0,0.3,0h0.2l0.2,0.6l-0.3,0.3
		l-0.7,0.1l-1.5,0.6l-1,0.7l-0.4,0.1l-1.4,0.6l-0.7,0.4l-1.9,1.4l-1.4,0.9l-1.6,0.8l-1.9,1.1l-0.3,0.3l-0.8,0.5l-0.4,0.4l-0.7,0.4
		h-0.1l-0.6,0.4l-0.6,0.6l-0.3,0.1l-0.1,0.2l-2.2,1.2v0.2l-0.1-0.1l-0.7,0.4l-0.1,0.2l-1.4,0.8l-1.3,0.7l-0.4,0.4l-0.1,0.1l-0.1-0.2
		l-0.3,0.1l-0.1,0.2l-0.2-0.1l-0.1,0.1l-0.6,0.3l-1,0.2l-0.2-0.1l-0.6,0.1l-0.5-0.1l-0.4-0.1l-0.3-0.3V225l-0.1-0.3
		c-0.2-0.4-0.2-0.8-0.1-1.2l0.3-0.5v-0.4l0.5-0.9l0.2-0.5l0.6-1L279.5,219.8z"/>
	<path class="st0" d="M303.7,213.9l0.2-0.5l0.1-0.1l0.4-1l0.4-1.2l0.7-1.6l0.2-0.6l1.4-2.9l0.3-0.8l0.2-0.4l0.7-2.1l0.6-1.6l0.6-1.5
		l0.2-1.1l-0.1-0.5h-0.2v-0.2l0.1-0.2l-0.4-1.4l-0.1-1.7l0.1-0.6l0.4-2.2l1.4-1.4l1-0.4l1,0.4l0.3,0.5l0.1,0.7l0.3-0.2l-0.1,0.3
		h-0.2l-0.1,0.2l-0.1,0.6c0,0.1,0.1,0.2,0.1,0.3c-0.1,1.2-0.3,2.3-0.8,3.4v2.5l-0.5,1.1l-0.5,0.5l-0.7,1.4l-0.4,1.2l-0.3,0.9l-0.2,1
		l-0.6,0.7l-0.1,0.4l-0.1,0.6v0.2l-0.3,0.2l-1.4,2.9l0,0.7l-0.8,1.5l-0.3,1.4l-1.4,3.3l-0.2,0.8l-0.7,1.6v0.1l-0.1,0.5l-0.2,0.1
		l-0.2,0.6l-0.2,0.9c0.3-0.4,0.6-0.8,0.8-1.3l0.2-0.4l0.1-0.1l0.2-0.6l0.5-0.4l0.2-0.3l0.4-0.7l0.5-0.5l0.7-0.9l0.4-0.3
		c1-1.3,1.9-2.7,3-3.9l0.4-0.6l0.1-0.3l0.7-0.7l0.5-0.6l1.3-1.2l0.2-0.3l1.8-1.7l0.4-0.3c0.8-0.5,1.4-1.1,2-1.6
		c0.8-0.6,1.8-1.1,2.8-1.2v-0.1l1.7-0.2l0.8,0.6l1,0.6l0.5,1.4l0.1,0.6l0.1,0.9v1.2v0.6l0.1,0.7l-0.1,2.3v0.2l0.8,0.7l0.5,1l0.2,0.1
		l-0.1,0.2l-0.1,0.7l0.1,0.7l0.5,0.6l0.4,0.3l0.8,0.5c1.5-0.2,2.9-0.6,4.3-1.1l1.7-1l0.5-0.2l1.1-0.6l0.5-0.2l1.6-0.9l1.1-0.9
		l0.8-0.2l0.9-0.4l1.4-0.8c1-0.6,2-1.4,3-2.1l0.8-0.8l0.4-0.2l2-1.5l0.5-0.6l0.6-0.8l0.7-0.7l2.3-1.5l2.7-2.3l0.3-0.4l1.1-0.9
		l0.3-0.1v-0.2l0.3-0.1l0.7-0.7l0.1-0.2l0.5-0.1l0.3,0.3l0.1,0.4l-0.2,0.2l-0.4,0.3c-1.3,1.1-2.5,2.4-3.9,3.6l-0.6,0.8l-0.6,0.3
		l-0.6,0.5h-0.2l-1,0.9l-0.1,0.2l-0.3,0.1c-0.1,0-0.2,0.1-0.2,0.2l-0.1,0.2l-0.4,0.3h-0.1c-0.8,0.7-1.7,1.4-2.6,2l-1.3,1.1l-3.6,2.6
		l-0.3,0.1l-0.1,0.1l-1,1.2l-0.9,0.7l-1.2,0.4l-1.2,1l-0.6,0.4l-0.8,0.3l-1,0.4l-0.6,0.2l-0.3,0.2l-0.3,0.1l-0.3,0.1
		c-0.7,0.3-1.4,0.5-2.1,0.7l-1.1,0.3l-0.4,0.4l-0.4,0.2l-0.8-0.1l-0.5,0.3h-0.7h-0.2c-1,0.3-2.1-0.4-3.2-0.7c-0.6-0.1-1.1-0.5-1.4-1
		l-0.1-0.3c-0.2-0.5-0.3-0.9-0.3-1.4L322,214l0.2-1.1l0.2-1.7h-0.1l0.1-0.2l0.3-3.4h-0.1l-0.2-0.1l0.3-0.7c-0.1-1.4-0.5-2.4-1.7-2.5
		c-0.6,0-0.8-0.2-1.5,0.2l-0.8,0.6l-0.6,0.7c-0.1,0-0.1,0.1-0.2,0.1l-1.7,1.6l-0.1,0.3l-0.2,0.2l-1.2,1.7l-0.6,0.5l-0.1,0.6
		l-2.4,2.6l-0.3,0.2l-0.6,0.6l-0.3,0.1l-0.2,0.8l-0.6,0.7l-0.2,0.2l-0.6,0.6l-0.5,0.6l-0.3,0.3l-0.2,0.8l-0.8,0.9l-0.7,0.8
		c-1.1,1.6-2.1,3.1-3.3,4.7l-0.3,0.6l-0.1-0.1l-0.7,0.9c-0.1,0-0.1,0-0.2,0.1l-0.1,0.2l-0.3,0.1l0.1,0.2v0.2l-0.3-0.2l-0.2,0.4
		l-0.4,0.2l-0.8-0.1l-0.5-0.8l-0.3-1.8l0.4-1.6l0.4-0.6l0.7-1.1l1-0.7l0-0.3h0.1l0.2,0.1l-0.1-0.4l0.2-0.2l0.2-0.8l0.2-1.2l0.4-0.6
		l0.1-0.5l1-2.2L303.7,213.9z"/>
	<path class="st0" d="M395.9,210.5l-0.8,0.4l-0.4,0.7l-0.2,0.4l-0.8,0.4l-1.3,0.9l-1,0.8l-0.5,0.2l-0.3,0.1l-0.2,0.3v0.2l-0.1-0.1
		v-0.1l-0.4,0.1l-1,0.7l-0.8,0.2c-0.2,0-0.3,0.1-0.4,0.2l-0.6,0.2l-1.6,0.2l-1-0.8l-0.1-0.2l-0.8-0.8l-1-1.2V213l-0.6-0.8l-0.1-2.4
		c-0.1-0.9-0.2-1.8-0.1-2.8l-0.1-0.4l0.1-0.6l-0.1-0.1l-0.3-1.7l0.3-1.7V202l0-0.7V201l0.1-0.3l0.1-0.2c0,0,0-0.1,0.1-0.1
		c0,0,0,0,0,0l-0.2-0.5v-0.4l0.3-0.6l0.4-2v-0.5V196l0.1-0.4l0.1,0.1l0.3-1v-0.3v-0.6l0.1-0.4l0.1-0.2l0.1-0.2l-0.2-0.1l0.2-0.5
		l0-0.3l0.2-1l-0.6-1.1l-0.2-0.3l-0.5-0.8l-0.3-0.3c-0.1,0-0.2,0-0.2-0.1l-0.6-0.6l-1.5,2.3l-1,2l-1.8,1.9l-1.2,1.5l-0.7,1l-0.1,0.3
		l-0.2,0.1l-1.9,3.1l-0.3,0.1l-0.7,1.1l-0.4,0.4c-0.6,0.7-1.1,1.4-1.7,2.1l-0.5,1.2l-0.5,0.9l-1,0.9l-0.8,1.3l-0.5,0.4l-0.6,0.7
		l-0.9,0.7l-0.4,0.4l-0.5,0.6l-0.7,0.6l-2.3,2.2l-0.1,0.2v0.3h-0.3l-0.6,0.5l-0.2-0.1c-1.9,1.9-4.4,3.2-7,3.9
		c-0.8-0.1-1.7-0.2-2.5-0.5c-0.1-0.3-0.3-0.3-0.3-0.5h-0.1l-0.8-1l-0.4-1.6v-1.2l0.2-1l0.5-1.1v-0.6l0.4-0.7l0.6-2.2v-0.2l0.3-0.7
		l1.4-1.9l0.4-0.6l-0.1-1l0.1-0.3l0.4-0.4l3.3-4.2h0.1c0.9-1.3,1.9-2.6,2.8-3.6l0.1-0.1l0.7-0.9l0.5-0.4l1.1-1.1l0.4-0.5l0.5-0.4
		l0.7-0.6l0.9-0.6l0.8-1.1l0.2-0.1h0.2c1-0.8,2-1.5,3-2.1l0.2-0.3l0.2-0.2l0.4-0.1l0.9-0.5l0.9-0.9l0.3-0.1l0.6-0.1
		c0.5-0.3,1-0.6,1.5-0.9c1.2-0.5,2.6-0.7,3.9-0.6l0.6-0.1l0.7,0.2l0.6-0.1c0.2,0,0.3,0.1,0.4,0.2l1.1,1.7l0.3-0.5V184l0.8-0.3
		l1.7-2.3l0.3-0.8l0.6-0.4l1.8-2.4l0.9-1.7l1.3-1.8l1.2-2l1.5-2.3l1.9-3.2v-0.1h0.1l1.2-2.1l0.8-1.6l0.5-1.1l0.4-0.4l0.2-0.7
		l0.8-1.3l0-0.3l0.6-0.5l0.2-0.7l0.7-1.1l1.5-2.6l0.3-0.5l0.1-0.2h0.1l1.4-2.6l0.3-0.6l0.3-0.4l0.1-0.4l0.5-0.9v-0.2l0.3-0.2
		l0.1-0.5l0.4-0.8l1.2-2.3l0.5-0.8l0.3-0.6l0.9-2.2l0.3-0.7l1.3-2.3l0.9-1.3l0.4-0.6V136l1-2l0.1-0.9l0.2-0.6l1-0.7l0.2-0.5l0.1-0.2
		l-0.1-0.4l0.1-0.3v-0.2l0.2-0.5v-0.1l0.2,0.1l0.3-0.4h0.2v-0.1l0.5-0.5l0.6-0.3l0.3-0.2l0.2,0.1l0.6-0.3l0.1-0.1l0.5-0.1h0.3h0.7
		l0.6,0.7l0.4,0.5l-0.7,2.1l-0.9,1.6h0.1l0.7,0.2l0.3,0.6l-0.6,0.8l-0.8,1.3l-0.3,0.8l-0.3,0.1l-0.1,0.3h-0.4l-1.2,0.6l-1.1,0.6
		h-0.2l-0.9,1.6l-0.6,0.9l-0.4,1l-1,0.6l-1.2,1.8l-0.5,1.1l-0.2,0.2l-0.4,0.8l-0.6,0.8l-1.7,3.4l-0.9,2l-1.1,1.9v0.3l-0.6,1.9
		l-0.4,0.5l-0.3,0.7l-0.5,1.1l-0.1-0.1l-0.5,1.1l-0.3,1.1l-0.1,0.4l-0.2,0.3l-1.7,3.4v0.2h-0.1l-0.6,1l0,0.3l-2.4,4.7l-0.3,0.4
		l-1.3,2.6v0.1H393c-1.8,3.8-3.2,7-3.9,8.5v0.1l-0.1,0.2l-0.2,0.4l-0.2,0.5v0.1l-0.2,0.1c-0.9,2.2-1.7,4.4-2.4,6.7l-0.1,0.1
		c-0.1,0.1-0.1,0.3-0.1,0.4h0.1v0.2l-0.1,0.3l0.2,0.3v0.9l0.2,0.1l-0.2,0.2l0.1,0.1l-0.2,0.2l0.1,0.4l-0.2,1.3l-0.4,0.1l-0.1,0.2
		l-0.4,0.8l-0.1-0.1l-0.4,0.1l-0.2,0.5l-0.4,2.3h-0.1l-0.1,0.8l0.1,1.5l-0.3,1.4v1.8l-0.1,1.8l-0.2,0.8l-0.1,0.5
		c0,0.3,0.1,0.7,0.2,1c0.3,2.8,1.4,4.2,2.8,4.7l0.8,0.1l0.1,0.1c0.4,0,0.7,0,1.1,0l0.6-0.4l1.2-0.5l0.1-0.2l0.9-0.7l0.5-0.2l0.9-0.2
		l0.4-0.1c1.8-1.2,3.5-2.6,5.1-4.1l1-1l0.6-0.5l0.2-0.1l0.1-0.2l0.1-0.2l0.5-0.6l0.8-0.6l1-0.8l2-2.3l0.9-0.6l1.2-1.4l0.4-0.4
		l1.2-1.2l0.4-0.3l0.4-0.4l1-1v-0.1l0.2-0.2l1-1.5l0.8-0.5l0.7-0.6l0.1-0.1l2-2.3l0.1-0.2l0.9-0.9l0.1-0.3l0.1-0.1h0.3l0.1-0.2
		l0.1-0.4l0.2-0.2l0.3-0.1l0.1-0.1l0.5-0.1l0.5,0.6l-0.2,0.4l-0.4,0.2c0,0-0.1,0.1-0.1,0.1c0,0,0,0,0,0h-0.1l-5.3,6l-0.2,0.5
		l-0.2,0.2l-0.4,0.3l-0.3,0.3c-1.3,1.4-2.7,2.8-4,4.1l-1.2,1.1l-0.1,0.2l-0.4,0.3l-0.4,0.7l-0.5,0.3l-4.6,4.4l-0.4,0.5l-1,1
		l-0.1,0.1h-0.2l-0.5,0.5v0.3l-0.3,0.1l0.3-0.2l0,0.3l-0.3,0.4l-0.4,0.1v-0.5l-0.1,0.1L395.9,210.5z M355.2,203.1l-0.7,1.1l-0.7,0.9
		l-0.2,1.2l-0.6,0.8l-0.4,1v1.3l0.3,1.1l-0.1,0.3l0.1,0.4l-0.5,1.1v1.1l0.2,1.5l0.3,1.1l0.1,0.3l0.2,0.1h0.5l0.5-0.1l0.4-0.3
		c0.3-0.2,0.5-0.4,0.8-0.5l0.6-0.9l0.7-0.7l0.6-0.5l1.1-0.6l1-0.7c0.1,0,0.2-0.1,0.2-0.2c1.3-1.1,2.5-2.3,3.5-3.4l0-0.2l1-0.9
		c0.3-0.2,0.5-0.5,0.7-0.8l0.6-0.8l0.3-0.6l1.1-1.5l0.5-0.6l0.2-0.5l0.3-0.2l1.2-0.9c1.7-2.1,3.4-4.7,5.8-7.8l1.6-2v-0.3l1.2-1.8
		l0.6-1v0.2l0.6-0.5l0.4-1.1l0.5-1l-0.7-1.1l-1-0.7l-0.4-0.1l-0.2-0.1c-2.1-0.1-4.9,1.2-6.9,2.6l-1.4,1l-0.7,0.4l-0.6,0.3
		c-0.2,0.1-0.4,0.4-0.5,0.4c-2.1,1.7-3.7,2.3-7.3,6.6l-0.9,1.5l-0.6,1.3l-0.8,1v0.2v0.3l-0.7,0.7l-0.5,0.7l-0.6,0.9l-0.3,0.4h-0.1
		l0,0.3L355.2,203.1z M382.1,187.7l0.1,0.1l0.2,0.2l0.5,0.4l0.3,0.4h0.5l0.2,0.2v0.1l0.6-0.8v-0.2h0.1v-0.3h0.1v0.2h0.1l0.4-1.1
		l0.1-0.2l0.1-0.5l0.2-0.4l-0.1-0.9l0.2-0.2l0.2-0.5l0.5-0.4l0.2-0.6l0.1-0.1l0.7-1.8v-0.1l0.3-0.8l0.5-1.2l0.2-0.3
		c1.1-2.5,2.3-5,3.5-7.5c-1.6,2.3-3.8,5.6-5.9,8.7l-1,1.8l-0.5,0.6h-0.2l-2.7,4.4C381.7,187.4,381.9,187.6,382.1,187.7z"/>
	<path class="st0" d="M444.3,189.1l0.2-0.5l0.1-0.1l0.4-1l0.4-1.2l0.7-1.6l0.2-0.6l1.4-2.9l0.3-0.8l0.2-0.4l0.7-2.1l0.6-1.6l0.6-1.5
		l0.2-1.1l-0.1-0.5h-0.2V173l0.1-0.2l-0.4-1.4l-0.1-1.7l0.1-0.6l0.4-2.2l1.4-1.4l1-0.4l1,0.4l0.3,0.5l0.1,0.7l0.3-0.2l-0.1,0.3h-0.2
		l-0.1,0.2l-0.1,0.6c0,0.1,0.1,0.2,0.1,0.3c-0.1,1.2-0.3,2.3-0.8,3.4v2.5l-0.5,1.1l-0.5,0.4l-0.7,1.4l-0.4,1.2l-0.3,0.9l-0.2,1
		l-0.6,0.7l-0.1,0.4l-0.1,0.6v0.2l-0.3,0.3l-1.4,2.9l0,0.8L447,187l-0.3,1.4l-1.4,3.3l-0.2,0.8l-0.7,1.6v0.1l-0.1,0.5l-0.2,0.1
		l-0.2,0.6l-0.2,0.9c0.3-0.4,0.6-0.8,0.8-1.3l0.2-0.4l0.1-0.1l0.2-0.6l0.5-0.4l0.2-0.3l0.4-0.7l0.5-0.4l0.7-0.9l0.4-0.4
		c1-1.3,1.9-2.6,3-4l0.4-0.6l0.1-0.3l0.7-0.7l0.5-0.5l1.3-1.2l0.2-0.3l1.8-1.7l0.4-0.2c0.8-0.5,1.4-1.1,2-1.6
		c0.8-0.6,1.8-1.1,2.8-1.2v-0.1l1.7-0.2l0.8,0.6l1,0.6l0.5,1.4l0.1,0.6l0.1,0.9v1.1v0.6l0.1,0.7l-0.1,2.3v0.2l0.8,0.7l0.5,1l0.2,0.1
		l-0.1,0.2l-0.1,0.6l0.1,0.7l0.5,0.6l0.4,0.3l0.8,0.5c1.5-0.2,2.9-0.6,4.3-1.1l1.7-1l0.5-0.2l1.1-0.6l0.5-0.2l1.6-0.9l1.1-0.9
		l0.8-0.2l0.8-0.4l1.4-0.8c1-0.6,2-1.4,3-2.1l0.8-0.8l0.4-0.2l2-1.5l0.5-0.6l0.6-0.8l0.7-0.7l2.3-1.5l2.7-2.4l0.3-0.4l1.1-0.9
		l0.3-0.1v-0.2h0.3l0.7-0.7l0.1-0.2l0.5-0.1l0.3,0.3l0.1,0.4l-0.2,0.2l-0.4,0.3c-1.3,1.1-2.5,2.4-3.9,3.6l-0.6,0.8l-0.6,0.3
		l-0.6,0.5h-0.2l-1,0.9l-0.1,0.2l-0.3,0.1c-0.1,0-0.2,0.1-0.2,0.2l-0.1,0.2l-0.4,0.3h-0.1c-0.8,0.7-1.7,1.4-2.6,2l-1.3,1.1l-3.4,2.5
		l-0.3,0.2l-0.1,0.1l-1,1.2l-0.9,0.7l-1.2,0.4l-1.2,1l-0.6,0.4l-0.8,0.3l-1,0.4l-0.6,0.2l-0.3,0.2l-0.3,0.2l-0.3,0.1
		c-0.7,0.3-1.4,0.5-2.1,0.7l-1.1,0.3l-0.4,0.4l-0.4,0.1l-0.8-0.1l-0.5,0.3H468h-0.2c-1,0.3-2.1-0.5-3.2-0.7c-0.6-0.1-1.1-0.5-1.4-1
		l-0.1-0.3c-0.2-0.5-0.3-0.9-0.3-1.4l-0.2-0.9l0.2-1.1l0.2-1.7h-0.1l0.1-0.2l0.3-3.4h-0.1l-0.2-0.1l0.2-0.7c0-1.4-0.5-2.4-1.7-2.5
		c-0.6,0-0.8-0.2-1.5,0.2l-0.8,0.6l-0.6,0.7c-0.1,0-0.1,0.1-0.2,0.1l-1.7,1.6l-0.1,0.3l-0.2,0.2l-1.2,1.7l-0.6,0.5l-0.1,0.6
		l-2.4,2.6l-0.3,0.1l-0.6,0.6l-0.3,0.2l-0.2,0.8l-0.6,0.7l-0.2,0.2l-0.6,0.6l-0.5,0.6l-0.3,0.3l-0.2,0.8l-0.8,0.9l-0.7,0.8
		c-1.1,1.6-2.1,3.1-3.3,4.8l-0.3,0.6l-0.1-0.1l-0.7,0.9c-0.1,0-0.1,0-0.2,0.1l-0.1,0.2l-0.3,0.1l0.1,0.2v0.2l-0.3-0.2l-0.2,0.4
		l-0.4,0.2l-0.8-0.1l-0.5-0.7l-0.3-1.8l0.4-1.6l0.4-0.6l0.7-1l1-0.7v-0.3h0.1l0.2,0.1l-0.1-0.4l0.2-0.2l0.2-0.8l0.2-1.3l0.4-0.6
		l0.1-0.5l1-2.2L444.3,189.1z"/>
	<path class="st0" d="M495.1,181.5l0.1,0.4l-0.4,0.5l-0.2,0.4c-0.1,0-0.1,0.1-0.1,0.2l0,0.3l-0.3,0.6l0.3,2.3c0,0.6,0.1,1.2,0.5,1.8
		c0.6,0.5,0.4,0.6,2.8,0.9l1.6,0.1l1.2-0.2l1.3-0.4l6.3-2.6l1.2-0.8l3.3-1.8l0.6-0.6l0.3-0.2h0.2l5-3.2l0.4-0.1l0.6-0.5l0.8-0.3
		l2.8-1.6l0.3-0.1c3-1.9,4.1-2.9,7-4.9l1.8-1.1l0.1-0.2l0.5-0.4l1.5-0.8l1.6-1V168l0.3-0.1l1-0.7l0.1-0.2l4.3-3.8l0.4-0.2
		c0.6-0.5,1.2-1.1,1.7-1.7c0.1-0.2,0.3-0.2,0.5-0.1c0,0,0.1,0,0.1,0.1v-0.1l0.3-0.3h0.4l0.4,0.8l-0.4,0.3l-0.8,0.4l-0.4,0.3
		l-1.8,1.8l-0.3,0.7l-0.5,0.1l-0.3,0.2c-0.7,0.7-1.5,1.3-2.3,1.9l-0.1,0.1l-0.6,0.5l-0.3,0.3l-0.3,0.1l-2.6,1.9v0.2l-0.3,0.1
		l-0.7,0.5l-0.2,0.1l-1.1,1l-3.2,2c-1,0.7-2,1.5-2.9,2.2l-0.2,0.3l-4.1,2.9l-0.3,0.3l-0.2-0.2l-0.9,0.8l-1,0.4l-0.7,0.5H519
		c-1.1,0.8-2.2,1.4-3.3,2l-1.2,1l-2.5,1.8l-0.7,0.3l-1,0.4l-1.4,0.7l-0.9,0.2l-0.3,0.3l-0.3,0.3l-1.1,0.5H506
		c-1.1,0.6-2.3,1.1-3.4,1.4l-0.2,0.3l-0.4,0.2h0.1l-1.7,0.7l-0.6-0.1l-0.9,0.5h-2.2l-2.1-0.6l-1.1-1.1l-0.6-1.1l-0.5-1.2l-0.3-1.5
		l0.1-0.2l-0.1-0.2l-0.1-0.6l0.2-2.4l0.4-1.2l0.4-1.7l0.4-1l0.1-0.2l0.1-0.8l0.5-0.5l0.1-0.7l0.4-0.9l0.2-0.3l0.9-0.6l0.3-0.5
		l0.6-0.4l0.6-0.7l0.2-0.1l0.8-1l0.7-0.8l0.5-1l0.3-0.4l0.4-0.6l0.3-0.3l0.5-0.3l0.1-0.3l0.4-0.5l0.7-0.4l0.4-0.3
		c1.7-1.9,3.5-3.6,5.4-5.3l0.1-0.2l0.8-0.8l1.1-0.6c0.1,0,0.2,0,0.2-0.1l1-0.9l0.6-0.5l0.3-0.1l1.2-0.4c0.9-0.5,1.8-1.1,2.8-1.5
		l0.7-0.6l0.9-0.1l0.5-0.3l0.3,0.1c0.7-0.1,1.4-0.2,2.1-0.3l0.1-0.1l0.3-0.1l0.2,0.1l0.3-0.1l0.1-0.1l0.6,0.1v-0.1h0.1l-0.1,0.2
		l0.3,0.1l0.3-0.1l0.1,0.2h0.1l0.6,0.2l0.1,0.1c0.5,0.3,0.9,0.5,1.1,0.9h0.3l-0.1,0.2h0.1l-0.1,0.1l0.1,0.4l0.2,0.3l-0.1,0.7
		l-0.1,0.3l0.1,0.5l-0.1,1.4l-0.5,1.3l-0.7,1.1l-0.9,0.8l-0.7,0.7l-2.8,2.2l-0.4,0.4l-0.6,0.3c-1.8,1.8-3.8,3.5-5.9,5l-0.1,0.2
		l-2.4,1.7l-1,1l-2.1,1.4l-1.6,0.9l-2.3,0.9l-1.4,0.3l-0.6,0.1l-0.6-0.2l-0.3-0.4l0.1-0.3l0.4-1.4l1-1.4l1.1-0.6l0.7-0.1l0.7,0.1
		l0.8,0.1l1.2-0.2l1-0.4l1.1-0.6l0.4-0.1l0.1-0.3l2.4-1.4l2.2-1.6l1.1-0.8l0.3-0.6l1.1-0.7l0.1-0.4l1.3-0.7l0.3-0.4l1-1.1l3.4-4.1
		l0.3-0.5l0.1-0.7l0.1-0.3l0.2-1.4l-0.1-0.1l-0.1-0.2l-0.3-0.4l-0.5-0.5l-0.7-0.1l-0.7-0.1l-1,0.2l-0.6,0.2h-0.4
		c-2.2,1-4.2,2.3-6.1,3.8l-1,0.7l-0.2,0.3L510,163h-0.4c-0.1,0.1-0.1,0.1-0.2,0.1v0.2l-0.5,0.3l-0.1,0.2h-0.2l-1.8,1.4l-0.9,1
		l-0.5,0.7l-0.9,0.4l-0.3,0.2c-0.7,0.7-1.3,1.4-2,2.2l-0.4,0.6l-1,1.3l-0.5,0.7l-0.8,1.1l-1,1.5l-1,1.7l-0.2,0.3l-0.4,0.9l-0.5,1
		l-0.7,1.1L495.1,181.5z"/>
	<path class="st0" d="M546.5,156.5v1.1l0.2,0.5l-0.1,0.2v0.2l-0.2,0.2l-0.3,0.3l-0.3,0.4l-0.3,0.6l-0.3,0.6v0.1v0.1H545l-0.2,1.1
		l-0.2,0.7l-0.3,1.3l-0.2,0.5l0,0.2v0.5v0.1l-0.1,0.1l-0.9,4.6v0.7l-0.1,0.1l0.1,1l-0.1,0.4l-0.2,1.9l0.1,1.4l0.1,1
		c0.5,0.8,1.7,0.1,4.2-3.1l0.4-0.5l0.2-0.2l0.5-1.2l0.6-1l0.4-0.9l0.2-0.2l1.5-2.8l0.2-0.8l0.2-0.2h0.1l-0.1-0.4l0.4-0.5v-0.3
		l0.6-0.8l0.7-1.6l0.5-0.8l0.2-0.4v-0.3l0.4-0.6l0.3-0.8l0.6-0.8v-0.4l0.5-0.6h0.2c0.7-1.2,1.5-2.3,2.4-3.3l0.2-0.6l1.1-1h0.3
		c0.2-0.2,0.5-0.3,0.8-0.4c0.5-0.1,0.6,0.1,0.7,0.4l0.4,0.2l-0.3,0.4l0.1,0.4l0.1,0.4v0.2l0.2,0.6l-0.2,0.6l0.1,0.6l0.1,1.1
		l-0.5,0.9l0.1,0.4l-0.1,0.3c-0.2,1.6-0.4,3.2-0.7,4.9l-0.1,0.9l0.2,0.3v0.3l-0.4,0.3l-0.1,0.7v0.3v0.3l-0.3,3.1l0.2,1.4l-0.3,0.7
		l-0.1,0.1l0,0.8l0.1,0.2l0.3,1.1l0.1,0.6l0.2,1.1l0.5,1.5l0.2,0.7c0.3,0.4,0.7,0.8,1.1,1.1c1,0.7,1.4,0.9,2.5,0.2l0.4-0.4l0.7-0.8
		l0.7-0.4l1-0.6l0.4-0.4c1.4-1.3,2.9-2.5,4.3-3.9l0.2-0.2l1.2-1.1l1-1.3l0.4-0.2l0.1-0.2l0.3-0.8l0.8-0.5l0.4-0.4l0.8-0.7l2-2.3
		l0.2-1l1.3-1.1l0.3-0.7l0.3-0.2l0.8-0.6c0.5-0.6,0.9-1.2,1.4-1.7h-0.1l0.4-0.7l2.3-2.7l2.1-2.9l1-1l1.2-1.9l0.5-0.6l1.4-1.6
		l0.5-0.6l1.6-2.3l0.4-0.9l0.7-0.9l0.5-0.4c0.5-0.6,0.7-1.2,1.2-1.9l2.2-2.8l0.1-0.3l1-1.2l0.3-0.1v-0.3l0.4-0.4l0.2-0.6l0.2-0.3
		h0.1l0.8-1.3l0.6-1.4v-0.1c0-0.1,0.1-0.2,0-0.3s0-0.1,0.2-0.2v-0.3l0.4-0.4l0.3-0.1l0.2,0.1v0.4l-0.1,0.3v0.1
		c-0.1,0.5-0.2,0.9-0.4,1.4l-0.5,1.7l-0.2,0.6v0.8L603,137l-0.6,0.2l-0.3,0.3l-0.5,0.4l-0.6,0.8l-0.6,0.9l-0.3,0.6l-1,1.1l-0.8,1
		l-0.2,0.1l-1,1.2l-0.3,0.5l-0.3,0.1l-0.3,0.5v0.1l-0.4,0.4l-0.1,0.3l-1.5,2.1l-0.4,0.3l-0.3,0.5l-1,1.3l-0.3,0.1l-0.6,0.8l-0.6,0.7
		l-3.6,5.1l-0.1,0.1c-1.2,1.6-2.4,3.1-3.7,4.6c-1,1.2-2.1,2.8-3.5,4.5l-0.6,0.9l-1.3,1.1l-0.1,0.1l-0.8,1.4L577,170l-0.7,0.8l-1,0.9
		l-0.7,0.5l-0.5,0.6L574,173c-1.3,1.2-2.4,2.5-3.5,3.5v0.5L570,177c-1.1,1-2.3,1.9-3.5,2.8c-2.5,1.6-2.5,3.4-4.6,2.9l-0.6,0.1
		l-0.4-0.6c-0.7-0.3-1.3-0.9-1.6-1.7l-0.2-0.3l-0.5-0.4l0-0.3l0.3-0.5v-0.3c-0.4-1.4-0.5-2.8-0.6-4.3v-1l0.1-0.8v-0.5l-0.4-0.8v-0.4
		l0.1-0.7l0-0.5v-0.3l-0.1-0.6l0.1-0.6v-0.1l-0.1-0.5l0.2-0.5l-0.1-0.3l0.1-0.2v-0.3l0.4-0.5l-0.3-0.4l0.2-1.9l-0.1-0.4l0.1-0.9
		l-0.2-0.9l0.2-2.4l-0.2-1.4l-0.4-0.7l-0.7,1l-0.1,0.4l-0.4,1.1l-0.9,1.2l-0.6,1.5l-0.3,0.6l-0.5,0.7l-1.3,1.9l-1.1,1.8l-0.1,0.6
		l-0.1,0.8l-0.3,0.3l-0.6,0.8l-0.2,0.4l-0.2,0.4l-0.1,0.1l-0.5,0.6l-0.6,1.2l-0.6,0.8l-0.3,0.9l-0.2,0.3l-0.2,0.7l-0.1,0.3v0.6
		l-0.1,0.3l-0.6,0.3l-1.8,1.6l-1.6,1.1H543l-1.2-0.1v0.1l-0.1-0.1c-0.3,0-0.4-0.1-0.3-0.4l-0.1-1l-0.2-0.6l-0.3-1.6l0.1-0.7
		l-0.3-0.6V174l0.5-0.4l0.1-0.4l0.2-0.6l0.1-0.4l0.1-0.2v-0.4h0.1l0.1-0.2l0.8-4.1l-0.1-0.1v-0.2l0.1-0.3l0.2-0.7l-0.2-0.5l-0.1-0.4
		l0.2-0.4l0-0.8l-0.1-1.6l0.2-0.8v-0.3l-0.3-1.1h0.2l-0.2-0.1v-0.2l-0.2-1.3l0.2-0.7h-0.3l0.3-0.1v-0.3v-0.3l0.5-0.7h0.1l0.8-0.2
		l1,0.2l0.3-0.3l0.3-0.2l0.5-0.1l0.4,0.2L546.5,156.5z"/>
	<path class="st0" d="M675.5,156.4l-0.3-0.6c-0.1-0.1-0.2-0.1-0.2-0.2c-0.3-0.4-0.5-1-0.4-1.5l0-0.3v-0.9l0.3-1.4l0.3-1l0.4-0.6
		l0.6-1l0.7-1.5l0.6-1l0.1-0.3v-0.4l0.6-1.2l0.2-0.6l0.1-0.5l-0.1-0.4l-0.2,0.2h-0.2l-0.7,0.5l-0.3,0.1l-1.9,1.7l-0.6,0.8l-0.5,0.7
		l-0.6,0.3l-0.6,0.4l-1.6,1.3l-0.3,0.6l-1,0.9l-0.5,0.4l-1.3,1.3l-1.6,1.7l-0.2,0.4l-0.3,0.5l-0.5,0.3l-0.2,0.1
		c-0.3,0.3-0.6,0.6-0.9,0.9l-0.4,0.4l-0.6,0.5l-0.8,0.9l-0.5,0.4c-0.8,0.9-1.8,1.6-2.9,2h-0.1v0.1l-0.4,0.2l-0.4-0.2l-0.4-0.3
		l-0.7-0.9c-0.4-0.7-0.5-1.6-0.3-2.4l-0.1-1.9v-0.6l0.3-1l0.2-0.2l0.5-1.8l0.2-0.4l1.1-2l0.4-1l0.2-0.2v-0.3l0.7-1.1l0.2-0.7
		l0.4-0.5l1.3-3.4l1.3-3l1-1.7l1.3-2.5l-1.3,0.2h-1.8l-0.3,0.1h-0.2c0,0.1-0.1,0.1-0.1,0.1l-1.4,1.1l-0.9,1.1l-2.8,2.1l-0.7,0.8
		l-2.8,2.7l-1.7,1.2l-0.3,0.1l-0.5,0.6l-0.1,0.1l-0.3,0.2l-2.4,2.4l-1,1l-0.7,1l-1.5,1.9l-1.2,1.1c-0.2,0.3-0.4,0.5-0.7,0.8
		l-0.4,1.2l-0.2,0.3l-0.6,0.9l-0.7,0.4l-0.2,0.5h-0.2l-0.2,0.2h-0.3l-0.3,0.5l-0.2,0.1l-2,2.6v0.3l-0.4,0.4l-0.3,0.3l-0.2,0.1
		l-1,1.2l-0.4,0.6h-0.1l-0.8,1.1l0,0.3h-0.2l-0.2,0.1l-0.7,1.1l-1,1.1l-0.4,0.6v0.2l-0.7,1.1l-0.5,0.8l-0.3,0.9l-0.2,0.5l-0.4,0.3
		l-0.3,0.1l-0.1,0.1v0.3l0,0.2l-0.4,0.4v0.2v0.2l-0.1,0.3v0.3l-0.3,0.4v0.1l-0.2-0.1l-0.3,0.1l-0.2,0.2h-0.1l-0.1,0.1l-0.5,0.5
		l-1,0.5h-0.2v-0.1l-0.6,0.3l-0.5,0.1h-0.5l-0.2-0.3l-0.5,0.4l-0.2-0.1l-0.5-0.5l-0.3-0.3v-0.7l0.1-0.9l0.2-0.3l-0.1-0.1v-0.4
		l0.4-0.4l0.3-0.5l0.7-1.9l1.5-2.3l0.1-0.1v-0.4l0.3-0.1l0.7-1.7l0.5-0.8l0.4-0.9l0.1-0.4l0.2-0.4l0.5-1v-0.2l0.4-0.4l0.2-0.5
		l0.4-0.9l1.2-2.5l0.4-0.7l0.3-0.7l1.3-2.4l0.3-0.8l1.3-2.3l0.8-1.7l0.2-0.5l0.1-0.9l0.1-0.6l0.4-0.4l0.4-0.3l0.1-0.6l0.1-0.2v-0.3
		l-0.1-0.2l0.1-0.3l-0.1-0.4l0.2-0.5h-0.1l0.1-0.1l0.1,0.1l0.2-0.2v-0.3h0.2V142l0.5-0.5l0.3-0.1l0.5-1.5l0.5-0.7l0.2-0.8l-0.2-0.1
		l0.3-0.7l0.1-0.3l0.1-0.4v-0.1l-0.1-0.1v-0.1h0.1l0-0.8v-0.9l0.1-0.3l0.4-1l0.8-0.7l0.4,0.1l-0.1-0.4l0.2-0.2l0.3-0.1l0.1-0.3
		l0.4-0.2l1-0.3l0.5-0.1l0.5,0.1l0.3,0.2l0.1,0.5l-0.3,0.8l0.1,0.4l-0.1,0.5l-0.4,2l-1.3,1.2l-0.9,0.9l-0.1,0.1l-0.7,1.8v0.2
		l-0.3,0.6v0.6l-0.2,0.7l-0.1,0.4l-0.3,0.3l-0.1,0.1l-0.2,0.1l-0.1,0.2h-0.2v0.4l-0.3,0.4l-0.5,0.5l-0.5,1.2l-0.4,0.8l-0.2,0.9
		l-0.2,0.3l-0.9,0.9l-0.8,1.5L636,151l-0.8,1.4v0.2l-0.5,0.7l-0.6,1.3l-0.1,0.9l-0.3,0.6l-0.5,0.9l0,0.3l-0.6,0.7l-0.6,1.1l-0.8,1.7
		l-0.7,1.6l-0.7,1.3l-1.2,2.6l-0.3,1.7l-0.1,0.4l0.1-0.1l0.4-0.1l0.2-0.2l0.3-0.1l0.2-0.1l0.1-0.2l0.5-0.4v-0.5l0.4-0.6l0.4-0.4
		l0.8-0.5l0.7-0.7l0.8-1l0.2-0.2l0.2-0.1l0.5-0.5l0.9-1.3l1.7-2.2l0.6-0.6l1.6-1.8l0.4-0.7l0.2-0.2l0.5-0.4l1.1-1.1l0.5-1l0.3-0.1
		l1.1-1.1l0.7-0.9l0.4-0.4l0.1-0.2l1.4-1.9l0.6-0.5l0.8-1.1l0.2-0.4l0.5-0.5l0.7-0.9l0.6-0.6l0.7-1.1l2-2.2l0.6-0.8l0.4-0.7l1.5-1
		l1-0.9l0.3-0.6l0.2,0.1l0.3-0.3l0.3-0.1l0.5-0.6l0.2-0.2l0.6-0.4l0.7-0.7l1-0.6l1.2-1l0.1-0.4l1.2-1l2.5-1l1.8-1.2l0.8-0.4l0.5-0.3
		l0.2-0.2l0.2-0.1h0.2l-0.2,0.2l0.8-0.1h0.4l0.7,0.8v0.9l-0.2,0.4c-0.5,1.2-1,2.4-1.7,3.5c-0.1,0.3-0.3,0.4-0.4,0.6l-0.6,0.8l-0.4,1
		l-1.2,1.7l-0.8,1.3l-0.1,0.3l-0.6,0.9l-1.7,4.4l-0.8,2.1l-0.5,2.3h-0.1v0.1l-0.7,2l-0.1,1.3l-0.2,0.4l-0.2,0.2l-0.2,0.7l-0.1,0.2
		l0.2,0.6l0.3,0.7l0.2,0.4l0.2,0.3l0.1,0.3l0.1,0.1l1.3-0.8l0.3-0.1c0.5-0.5,1-1.1,1.5-1.6l0.4-0.5l0.4-0.3c0.6-0.7,1.1-1.4,1.7-2.1
		l0.9-1l0.5-0.5l1.9-1.9l3.3-3.6l0.3-0.6l0.3-0.3l0.6-0.4l0.4-0.1c0.1-0.2,0.3-0.3,0.5-0.4l0.2-0.3l0.1-0.2v-0.1l0.2-0.2v-0.3v-0.1
		l0.4-0.4l-0.1-0.1h0.1l0.2,0.1l0.3-0.1l0.2-0.2h0.2l0.7-0.4l0.6-0.1l0.4-0.3h0.3l-0.1,0.1l0.6-0.2l0.1-0.1h0.5l0.5,0.1l0.3,0.2
		l0.1,0.4l-0.1,0.1h0.1l-0.2,0.2l-0.3,1.6v0.3l-0.3,1.1l-0.6,1.2l-0.3,1.4l-0.2,0.6l-0.4,0.8l-0.8,1.5l-0.3,0.7l-0.4,1l-0.2,0.8
		l-0.1,1l0.3,0.9l0.7,0.4c1.1,0.2,2.2,0.2,3.2-0.2l0.5-0.2v0.1c0.1,0,0.2-0.1,0.3-0.1l0.1-0.1l0.2-0.2l1.1-0.3l0.8-0.5l0.5-0.4
		l0.5,0.1l0.2-0.2l0.1-0.1l0.5-0.2l1.7-1.3l1-0.9l0.5-0.2l0.5-0.5h0.3l1.1-0.9l0.5-0.2l0.5-0.4l1.1-0.7l1-0.8l2.3-1.7l0.2-0.2
		l2.9-2.2l0.3-0.3l1.1-0.6l0.4-0.4l1-0.9l0.5-0.6l0.3-0.1l0.3,0.4v0.4l-0.4,0.3l-0.2,0.1l-0.4,0.4l-0.1,0.3l-0.2,0.2l-0.5,0.2
		l-2.2,2.1l-0.6,0.7h-0.3l-1,0.7l-0.7,0.7l-0.4,0.3l-0.2,0.2l-0.3,0.1l-1.4,1.1l-0.5,0.4l-0.4,0.4l-0.5,0.4l-0.3,0.3l-0.3,0.3
		l-0.7,0.6l-0.2,0.1l-0.4,0.3l-0.3,0.3l-0.7,0.5l-1.2,0.7l-1.5,1l-0.6,0.6h-0.4L685,154c-0.3,0.1-0.5,0.4-0.8,0.5l-0.2,0.1l-0.4,0.2
		l-1,0.5v0.1h-0.2l-0.5,0.4l-0.5,0.2l-0.5,0.1c-0.6,0.3-1.1,0.5-1.8,0.6l-0.9,0.1c-0.4,0-0.7,0-1.1,0h-0.3L675.5,156.4z"/>
	<path class="st0" d="M701.2,145.2l0.1,0.4l-0.4,0.5l-0.2,0.4c-0.1,0-0.1,0.1-0.1,0.2l0,0.3l-0.3,0.6l0.3,2.3c0,0.6,0.1,1.2,0.5,1.8
		c0.7,0.5,0.4,0.6,2.8,0.9l1.6,0.1l1.2-0.2l1.3-0.4l6.3-2.6l1.2-0.8l3.3-1.8l0.6-0.6l0.3-0.3h0.2l5-3.2l0.4-0.1l0.6-0.5l0.8-0.3
		l2.8-1.6l0.3-0.1c3-1.9,4.1-2.9,7-4.9l1.8-1.1l0.1-0.2l0.5-0.4l1.5-0.8l1.6-1v-0.2h0.3l1-0.7l0.1-0.2l4.3-3.8l0.4-0.2
		c0.6-0.6,1.2-1.2,1.7-1.8c0.1-0.2,0.3-0.2,0.5-0.1c0,0,0.1,0,0.1,0.1v-0.1l0.3-0.3h0.4l0.4,0.8l-0.4,0.3l-0.8,0.4l-0.4,0.3
		l-1.8,1.8l-0.3,0.7l-0.4,0.1l-0.3,0.2c-0.7,0.7-1.5,1.3-2.3,1.9l-0.1,0.1l-0.6,0.5l-0.3,0.3h-0.3l-2.6,2l-0.1,0.2l-0.3,0.1
		l-0.7,0.5l-0.2,0.1l-1.1,1l-3.2,2c-1,0.7-2,1.6-2.9,2.2l-0.2,0.3l-4.1,2.9l-0.3,0.3l-0.2-0.2l-0.9,0.8l-1,0.4l-0.7,0.5H725
		c-1.1,0.7-2.2,1.4-3.2,2l-1.2,1l-2.6,2l-0.7,0.3l-1,0.4l-1.4,0.7l-0.9,0.3l-0.3,0.2l-0.3,0.3l-1.1,0.5H712
		c-1.1,0.6-2.3,1.1-3.4,1.4l-0.2,0.3l-0.4,0.2h0.1l-1.7,0.7l-0.6-0.1l-0.9,0.5h-2.2l-2.2-0.6l-1.1-1.1l-0.7-1.1l-0.5-1.2l-0.3-1.5
		l0.1-0.2l-0.1-0.2l-0.1-0.6l0.2-2.4l0.4-1.2l0.4-1.7l0.4-1l0.1-0.2l0.2-0.8l0.5-0.6l0.2-0.7l0.4-0.9l0.2-0.3l0.9-0.6l0.3-0.5
		l0.6-0.4l0.6-0.7l0.2-0.1l0.8-1l0.7-0.8l0.5-1l0.3-0.4l0.3-0.6l0.3-0.3l0.5-0.3l0.1-0.3l0.4-0.5l0.7-0.4l0.4-0.3
		c1.7-1.9,3.5-3.6,5.4-5.3l0.2-0.2l0.8-0.8l1.1-0.7c0.1,0,0.2,0,0.2-0.1l1-0.9l0.6-0.5l0.3-0.1l1.2-0.4c0.9-0.5,1.8-1.1,2.8-1.5
		l0.7-0.6l0.9-0.2l0.5-0.3l0.3,0.1c0.7-0.1,1.4-0.2,2.1-0.3l0.1-0.1l0.3-0.1h0.2l0.3-0.1l0.1-0.1l0.6,0.1v-0.1h0.1l-0.1,0.2l0.3,0.1
		h0.3l0.1,0.2h0.1l0.6,0.2l0.1,0.1c0.5,0.3,0.9,0.5,1.1,0.9l0.3,0.1l-0.1,0.2h0.1l-0.1,0.1l0.1,0.4l0.2,0.3l-0.1,0.7l-0.1,0.3
		l0.1,0.5l-0.1,1.4l-0.5,1.3l-0.7,1l-0.9,0.8l-0.7,0.7l-2.8,2.2l-0.4,0.4l-0.6,0.3c-1.8,1.8-3.8,3.5-5.9,5v0.2l-2.4,1.7l-1,1
		l-2.2,1.4l-1.6,0.9l-2.3,0.9L707,143l-0.6,0.1l-0.6-0.2l-0.3-0.4l0.1-0.3l0.4-1.4l1-1.4l1.1-0.6l0.7-0.1l0.7,0.1h0.8l1.2-0.2l1-0.4
		l1.1-0.7l0.4-0.1l0.1-0.3l2.4-1.4l2.2-1.6l1-0.8l0.4-0.6l1.1-0.6l0.1-0.4l1.3-0.7l0.3-0.4l1-1.1l3.4-4.1l0.3-0.5l0.1-0.7l0.1-0.3
		l0.2-1.4l-0.1-0.1l-0.1-0.2l-0.3-0.4l-0.5-0.5l-0.7-0.2l-0.7-0.1l-1,0.2l-0.6,0.2h-0.4c-2.2,1-4.2,2.3-6.1,3.8l-1,0.7l-0.2,0.3
		l-0.4,0.4h-0.4c-0.1,0.1-0.1,0.1-0.2,0.1v0.2l-0.5,0.3l-0.2,0.2h-0.2l-1.8,1.4l-0.8,1l-0.5,0.7l-0.8,0.4l-0.3,0.2
		c-0.7,0.7-1.3,1.4-2,2.2l-0.4,0.6l-1,1.3l-0.5,0.7l-0.8,1.1l-1,1.5l-1,1.7l-0.2,0.3l-0.4,0.9l-0.5,1l-0.7,1.1L701.2,145.2z"/>
	<path class="st0" d="M753,141l0.2-0.2c-0.8-0.4-1.3-1.3-1-2.2c0.3-0.8,0.7-1.5,1.3-2c0.7-0.7,1.6-1.3,2.6-1.8
		c1.3-0.6,2.7-0.9,4.2-0.9l0.5,0.3c0.3,0.4,0.8,0.6,0.8,1.2l0.1,0.3l-0.1,0.4l-0.3,0.5c-0.2,0.6-0.4,1.2-0.7,1.7v0.1l-0.3,0.4
		c-0.1,0.2-0.2,0.4-0.4,0.5v0.1c-1.8,2.7-4.9,5.4-7.1,6.2c-0.3-0.1-0.6-0.2-0.7-0.5c0-0.1,0-0.3,0-0.4l-0.1-0.3l0.5-0.5l0.5-0.8
		v-0.1l-0.2-0.3v-0.8l0.2-0.5v-0.1L753,141z M757.6,140.2l0.8-1c0.2-0.5,0.4-1,0.5-1.6v-0.8l-0.1-0.4v-0.2V136v-0.6l-0.3-0.3H758
		c-1.2,0.3-2.4,0.8-3.3,1.6c-1.3,1.1-1.6,2.6,0.2,2.9l1.5-0.9c0.3-0.1,0.5,0,0.7,0.3v0.1c0.1,0.2,0.1,0.5,0,0.7L757.6,140.2z
		 M755.8,141.3c-0.6,0.7-1.1,1.4-1.6,2.2c0.9-0.6,1.6-1.4,2.3-2.3C756.2,141.4,756,141.3,755.8,141.3L755.8,141.3z"/>
</g>
</svg>
